ISO-10303-21;
HEADER;
/* Generated by software containing ST-Developer
 * from STEP Tools, Inc. (www.steptools.com) 
 */

FILE_DESCRIPTION(
/* description */ (''),
/* implementation_level */ '2;1');

FILE_NAME(
/* name */ 'camera.stp',
/* time_stamp */ '2025-09-24T19:28:50+03:00',
/* author */ ('DELL'),
/* organization */ (''),
/* preprocessor_version */ 'ST-DEVELOPER v19.2',
/* originating_system */ 'Autodesk Inventor 2023',
/* authorisation */ '');

FILE_SCHEMA (('AUTOMOTIVE_DESIGN { 1 0 10303 214 3 1 1 }'));
ENDSEC;

DATA;
#10=MECHANICAL_DESIGN_GEOMETRIC_PRESENTATION_REPRESENTATION('',(#13),#702);
#11=SHAPE_REPRESENTATION_RELATIONSHIP('SRR','None',#709,#12);
#12=ADVANCED_BREP_SHAPE_REPRESENTATION('',(#14),#701);
#13=STYLED_ITEM('',(#718),#14);
#14=MANIFOLD_SOLID_BREP('\X2\04220432043504400434043E0435\X0\ \X2\04420435043B043E\X0\1',
#411);
#15=ELLIPSE('',#448,2.82842712474619,2.);
#16=ELLIPSE('',#451,2.82842712474619,2.);
#17=FACE_BOUND('',#70,.T.);
#18=FACE_BOUND('',#85,.T.);
#19=FACE_BOUND('',#88,.T.);
#20=FACE_BOUND('',#89,.T.);
#21=CIRCLE('',#439,5.95387455892949);
#22=CIRCLE('',#440,5.95387455892949);
#23=CIRCLE('',#442,8.);
#24=CIRCLE('',#443,8.);
#25=CIRCLE('',#447,2.);
#26=CIRCLE('',#450,2.);
#27=CIRCLE('',#459,1.8);
#28=CIRCLE('',#460,1.8);
#29=CIRCLE('',#463,1.8);
#30=CIRCLE('',#464,1.8);
#31=CYLINDRICAL_SURFACE('',#438,5.95387455892949);
#32=CYLINDRICAL_SURFACE('',#441,8.);
#33=CYLINDRICAL_SURFACE('',#446,2.);
#34=CYLINDRICAL_SURFACE('',#449,2.);
#35=CYLINDRICAL_SURFACE('',#452,2.);
#36=CYLINDRICAL_SURFACE('',#458,1.8);
#37=CYLINDRICAL_SURFACE('',#462,1.8);
#38=FACE_OUTER_BOUND('',#62,.T.);
#39=FACE_OUTER_BOUND('',#63,.T.);
#40=FACE_OUTER_BOUND('',#64,.T.);
#41=FACE_OUTER_BOUND('',#65,.T.);
#42=FACE_OUTER_BOUND('',#66,.T.);
#43=FACE_OUTER_BOUND('',#67,.T.);
#44=FACE_OUTER_BOUND('',#68,.T.);
#45=FACE_OUTER_BOUND('',#69,.T.);
#46=FACE_OUTER_BOUND('',#71,.T.);
#47=FACE_OUTER_BOUND('',#72,.T.);
#48=FACE_OUTER_BOUND('',#73,.T.);
#49=FACE_OUTER_BOUND('',#74,.T.);
#50=FACE_OUTER_BOUND('',#75,.T.);
#51=FACE_OUTER_BOUND('',#76,.T.);
#52=FACE_OUTER_BOUND('',#77,.T.);
#53=FACE_OUTER_BOUND('',#78,.T.);
#54=FACE_OUTER_BOUND('',#79,.T.);
#55=FACE_OUTER_BOUND('',#80,.T.);
#56=FACE_OUTER_BOUND('',#81,.T.);
#57=FACE_OUTER_BOUND('',#82,.T.);
#58=FACE_OUTER_BOUND('',#83,.T.);
#59=FACE_OUTER_BOUND('',#84,.T.);
#60=FACE_OUTER_BOUND('',#86,.T.);
#61=FACE_OUTER_BOUND('',#87,.T.);
#62=EDGE_LOOP('',(#262,#263,#264,#265));
#63=EDGE_LOOP('',(#266,#267,#268,#269));
#64=EDGE_LOOP('',(#270,#271,#272,#273));
#65=EDGE_LOOP('',(#274,#275,#276,#277));
#66=EDGE_LOOP('',(#278,#279,#280,#281));
#67=EDGE_LOOP('',(#282,#283,#284,#285));
#68=EDGE_LOOP('',(#286,#287,#288,#289));
#69=EDGE_LOOP('',(#290,#291,#292,#293,#294));
#70=EDGE_LOOP('',(#295,#296,#297,#298,#299));
#71=EDGE_LOOP('',(#300,#301,#302,#303,#304));
#72=EDGE_LOOP('',(#305,#306,#307,#308,#309));
#73=EDGE_LOOP('',(#310,#311,#312,#313));
#74=EDGE_LOOP('',(#314,#315,#316,#317));
#75=EDGE_LOOP('',(#318,#319,#320,#321));
#76=EDGE_LOOP('',(#322,#323,#324,#325));
#77=EDGE_LOOP('',(#326,#327,#328,#329));
#78=EDGE_LOOP('',(#330,#331,#332,#333));
#79=EDGE_LOOP('',(#334,#335,#336,#337));
#80=EDGE_LOOP('',(#338));
#81=EDGE_LOOP('',(#339,#340,#341,#342));
#82=EDGE_LOOP('',(#343));
#83=EDGE_LOOP('',(#344,#345,#346,#347));
#84=EDGE_LOOP('',(#348,#349,#350,#351,#352));
#85=EDGE_LOOP('',(#353,#354,#355,#356,#357));
#86=EDGE_LOOP('',(#358,#359,#360,#361));
#87=EDGE_LOOP('',(#362,#363,#364,#365,#366,#367));
#88=EDGE_LOOP('',(#368));
#89=EDGE_LOOP('',(#369));
#90=LINE('',#590,#132);
#91=LINE('',#592,#133);
#92=LINE('',#594,#134);
#93=LINE('',#595,#135);
#94=LINE('',#598,#136);
#95=LINE('',#600,#137);
#96=LINE('',#601,#138);
#97=LINE('',#604,#139);
#98=LINE('',#606,#140);
#99=LINE('',#607,#141);
#100=LINE('',#610,#142);
#101=LINE('',#612,#143);
#102=LINE('',#613,#144);
#103=LINE('',#622,#145);
#104=LINE('',#625,#146);
#105=LINE('',#628,#147);
#106=LINE('',#630,#148);
#107=LINE('',#631,#149);
#108=LINE('',#634,#150);
#109=LINE('',#636,#151);
#110=LINE('',#637,#152);
#111=LINE('',#641,#153);
#112=LINE('',#643,#154);
#113=LINE('',#646,#155);
#114=LINE('',#652,#156);
#115=LINE('',#654,#157);
#116=LINE('',#657,#158);
#117=LINE('',#659,#159);
#118=LINE('',#661,#160);
#119=LINE('',#663,#161);
#120=LINE('',#664,#162);
#121=LINE('',#667,#163);
#122=LINE('',#668,#164);
#123=LINE('',#671,#165);
#124=LINE('',#672,#166);
#125=LINE('',#674,#167);
#126=LINE('',#680,#168);
#127=LINE('',#687,#169);
#128=LINE('',#692,#170);
#129=LINE('',#693,#171);
#130=LINE('',#695,#172);
#131=LINE('',#697,#173);
#132=VECTOR('',#474,10.);
#133=VECTOR('',#475,10.);
#134=VECTOR('',#476,10.);
#135=VECTOR('',#477,10.);
#136=VECTOR('',#480,10.);
#137=VECTOR('',#481,10.);
#138=VECTOR('',#482,10.);
#139=VECTOR('',#485,10.);
#140=VECTOR('',#486,10.);
#141=VECTOR('',#487,10.);
#142=VECTOR('',#490,10.);
#143=VECTOR('',#491,10.);
#144=VECTOR('',#492,10.);
#145=VECTOR('',#503,10.);
#146=VECTOR('',#506,10.);
#147=VECTOR('',#509,10.);
#148=VECTOR('',#510,10.);
#149=VECTOR('',#511,10.);
#150=VECTOR('',#514,10.);
#151=VECTOR('',#515,10.);
#152=VECTOR('',#516,10.);
#153=VECTOR('',#519,10.);
#154=VECTOR('',#520,10.);
#155=VECTOR('',#523,10.);
#156=VECTOR('',#530,10.);
#157=VECTOR('',#531,10.);
#158=VECTOR('',#536,10.);
#159=VECTOR('',#539,10.);
#160=VECTOR('',#540,10.);
#161=VECTOR('',#541,10.);
#162=VECTOR('',#542,10.);
#163=VECTOR('',#545,10.);
#164=VECTOR('',#546,10.);
#165=VECTOR('',#549,10.);
#166=VECTOR('',#550,10.);
#167=VECTOR('',#553,10.);
#168=VECTOR('',#560,1.8);
#169=VECTOR('',#569,1.8);
#170=VECTOR('',#576,10.);
#171=VECTOR('',#577,10.);
#172=VECTOR('',#580,10.);
#173=VECTOR('',#583,10.);
#174=VERTEX_POINT('',#588);
#175=VERTEX_POINT('',#589);
#176=VERTEX_POINT('',#591);
#177=VERTEX_POINT('',#593);
#178=VERTEX_POINT('',#597);
#179=VERTEX_POINT('',#599);
#180=VERTEX_POINT('',#603);
#181=VERTEX_POINT('',#605);
#182=VERTEX_POINT('',#609);
#183=VERTEX_POINT('',#611);
#184=VERTEX_POINT('',#618);
#185=VERTEX_POINT('',#619);
#186=VERTEX_POINT('',#621);
#187=VERTEX_POINT('',#623);
#188=VERTEX_POINT('',#627);
#189=VERTEX_POINT('',#629);
#190=VERTEX_POINT('',#633);
#191=VERTEX_POINT('',#635);
#192=VERTEX_POINT('',#639);
#193=VERTEX_POINT('',#640);
#194=VERTEX_POINT('',#642);
#195=VERTEX_POINT('',#644);
#196=VERTEX_POINT('',#649);
#197=VERTEX_POINT('',#651);
#198=VERTEX_POINT('',#653);
#199=VERTEX_POINT('',#660);
#200=VERTEX_POINT('',#662);
#201=VERTEX_POINT('',#666);
#202=VERTEX_POINT('',#670);
#203=VERTEX_POINT('',#677);
#204=VERTEX_POINT('',#679);
#205=VERTEX_POINT('',#684);
#206=VERTEX_POINT('',#686);
#207=VERTEX_POINT('',#691);
#208=EDGE_CURVE('',#174,#175,#90,.T.);
#209=EDGE_CURVE('',#174,#176,#91,.T.);
#210=EDGE_CURVE('',#177,#176,#92,.T.);
#211=EDGE_CURVE('',#175,#177,#93,.T.);
#212=EDGE_CURVE('',#178,#174,#94,.T.);
#213=EDGE_CURVE('',#178,#179,#95,.T.);
#214=EDGE_CURVE('',#176,#179,#96,.T.);
#215=EDGE_CURVE('',#180,#178,#97,.T.);
#216=EDGE_CURVE('',#180,#181,#98,.T.);
#217=EDGE_CURVE('',#179,#181,#99,.T.);
#218=EDGE_CURVE('',#182,#180,#100,.T.);
#219=EDGE_CURVE('',#182,#183,#101,.T.);
#220=EDGE_CURVE('',#181,#183,#102,.T.);
#221=EDGE_CURVE('',#175,#182,#21,.T.);
#222=EDGE_CURVE('',#183,#177,#22,.T.);
#223=EDGE_CURVE('',#184,#185,#23,.T.);
#224=EDGE_CURVE('',#185,#186,#103,.T.);
#225=EDGE_CURVE('',#186,#187,#24,.T.);
#226=EDGE_CURVE('',#187,#184,#104,.T.);
#227=EDGE_CURVE('',#185,#188,#105,.T.);
#228=EDGE_CURVE('',#189,#188,#106,.T.);
#229=EDGE_CURVE('',#189,#186,#107,.T.);
#230=EDGE_CURVE('',#190,#184,#108,.T.);
#231=EDGE_CURVE('',#191,#190,#109,.T.);
#232=EDGE_CURVE('',#188,#191,#110,.T.);
#233=EDGE_CURVE('',#192,#193,#111,.T.);
#234=EDGE_CURVE('',#193,#194,#112,.T.);
#235=EDGE_CURVE('',#194,#195,#25,.T.);
#236=EDGE_CURVE('',#195,#189,#113,.T.);
#237=EDGE_CURVE('',#189,#192,#15,.T.);
#238=EDGE_CURVE('',#191,#196,#26,.T.);
#239=EDGE_CURVE('',#196,#197,#114,.T.);
#240=EDGE_CURVE('',#197,#198,#115,.T.);
#241=EDGE_CURVE('',#198,#188,#16,.T.);
#242=EDGE_CURVE('',#198,#192,#116,.T.);
#243=EDGE_CURVE('',#193,#197,#117,.T.);
#244=EDGE_CURVE('',#193,#199,#118,.T.);
#245=EDGE_CURVE('',#199,#200,#119,.T.);
#246=EDGE_CURVE('',#197,#200,#120,.T.);
#247=EDGE_CURVE('',#192,#201,#121,.T.);
#248=EDGE_CURVE('',#201,#199,#122,.T.);
#249=EDGE_CURVE('',#198,#202,#123,.T.);
#250=EDGE_CURVE('',#202,#201,#124,.T.);
#251=EDGE_CURVE('',#200,#202,#125,.T.);
#252=EDGE_CURVE('',#203,#203,#27,.T.);
#253=EDGE_CURVE('',#203,#204,#126,.T.);
#254=EDGE_CURVE('',#204,#204,#28,.T.);
#255=EDGE_CURVE('',#205,#205,#29,.T.);
#256=EDGE_CURVE('',#205,#206,#127,.T.);
#257=EDGE_CURVE('',#206,#206,#30,.T.);
#258=EDGE_CURVE('',#207,#187,#128,.T.);
#259=EDGE_CURVE('',#190,#207,#129,.T.);
#260=EDGE_CURVE('',#207,#195,#130,.T.);
#261=EDGE_CURVE('',#194,#196,#131,.T.);
#262=ORIENTED_EDGE('',*,*,#208,.F.);
#263=ORIENTED_EDGE('',*,*,#209,.T.);
#264=ORIENTED_EDGE('',*,*,#210,.F.);
#265=ORIENTED_EDGE('',*,*,#211,.F.);
#266=ORIENTED_EDGE('',*,*,#212,.F.);
#267=ORIENTED_EDGE('',*,*,#213,.T.);
#268=ORIENTED_EDGE('',*,*,#214,.F.);
#269=ORIENTED_EDGE('',*,*,#209,.F.);
#270=ORIENTED_EDGE('',*,*,#215,.F.);
#271=ORIENTED_EDGE('',*,*,#216,.T.);
#272=ORIENTED_EDGE('',*,*,#217,.F.);
#273=ORIENTED_EDGE('',*,*,#213,.F.);
#274=ORIENTED_EDGE('',*,*,#218,.F.);
#275=ORIENTED_EDGE('',*,*,#219,.T.);
#276=ORIENTED_EDGE('',*,*,#220,.F.);
#277=ORIENTED_EDGE('',*,*,#216,.F.);
#278=ORIENTED_EDGE('',*,*,#221,.F.);
#279=ORIENTED_EDGE('',*,*,#211,.T.);
#280=ORIENTED_EDGE('',*,*,#222,.F.);
#281=ORIENTED_EDGE('',*,*,#219,.F.);
#282=ORIENTED_EDGE('',*,*,#223,.T.);
#283=ORIENTED_EDGE('',*,*,#224,.T.);
#284=ORIENTED_EDGE('',*,*,#225,.T.);
#285=ORIENTED_EDGE('',*,*,#226,.T.);
#286=ORIENTED_EDGE('',*,*,#224,.F.);
#287=ORIENTED_EDGE('',*,*,#227,.T.);
#288=ORIENTED_EDGE('',*,*,#228,.F.);
#289=ORIENTED_EDGE('',*,*,#229,.T.);
#290=ORIENTED_EDGE('',*,*,#223,.F.);
#291=ORIENTED_EDGE('',*,*,#230,.F.);
#292=ORIENTED_EDGE('',*,*,#231,.F.);
#293=ORIENTED_EDGE('',*,*,#232,.F.);
#294=ORIENTED_EDGE('',*,*,#227,.F.);
#295=ORIENTED_EDGE('',*,*,#208,.T.);
#296=ORIENTED_EDGE('',*,*,#221,.T.);
#297=ORIENTED_EDGE('',*,*,#218,.T.);
#298=ORIENTED_EDGE('',*,*,#215,.T.);
#299=ORIENTED_EDGE('',*,*,#212,.T.);
#300=ORIENTED_EDGE('',*,*,#233,.T.);
#301=ORIENTED_EDGE('',*,*,#234,.T.);
#302=ORIENTED_EDGE('',*,*,#235,.T.);
#303=ORIENTED_EDGE('',*,*,#236,.T.);
#304=ORIENTED_EDGE('',*,*,#237,.T.);
#305=ORIENTED_EDGE('',*,*,#232,.T.);
#306=ORIENTED_EDGE('',*,*,#238,.T.);
#307=ORIENTED_EDGE('',*,*,#239,.T.);
#308=ORIENTED_EDGE('',*,*,#240,.T.);
#309=ORIENTED_EDGE('',*,*,#241,.T.);
#310=ORIENTED_EDGE('',*,*,#228,.T.);
#311=ORIENTED_EDGE('',*,*,#241,.F.);
#312=ORIENTED_EDGE('',*,*,#242,.T.);
#313=ORIENTED_EDGE('',*,*,#237,.F.);
#314=ORIENTED_EDGE('',*,*,#243,.F.);
#315=ORIENTED_EDGE('',*,*,#244,.T.);
#316=ORIENTED_EDGE('',*,*,#245,.T.);
#317=ORIENTED_EDGE('',*,*,#246,.F.);
#318=ORIENTED_EDGE('',*,*,#233,.F.);
#319=ORIENTED_EDGE('',*,*,#247,.T.);
#320=ORIENTED_EDGE('',*,*,#248,.T.);
#321=ORIENTED_EDGE('',*,*,#244,.F.);
#322=ORIENTED_EDGE('',*,*,#242,.F.);
#323=ORIENTED_EDGE('',*,*,#249,.T.);
#324=ORIENTED_EDGE('',*,*,#250,.T.);
#325=ORIENTED_EDGE('',*,*,#247,.F.);
#326=ORIENTED_EDGE('',*,*,#240,.F.);
#327=ORIENTED_EDGE('',*,*,#246,.T.);
#328=ORIENTED_EDGE('',*,*,#251,.T.);
#329=ORIENTED_EDGE('',*,*,#249,.F.);
#330=ORIENTED_EDGE('',*,*,#251,.F.);
#331=ORIENTED_EDGE('',*,*,#245,.F.);
#332=ORIENTED_EDGE('',*,*,#248,.F.);
#333=ORIENTED_EDGE('',*,*,#250,.F.);
#334=ORIENTED_EDGE('',*,*,#252,.F.);
#335=ORIENTED_EDGE('',*,*,#253,.T.);
#336=ORIENTED_EDGE('',*,*,#254,.T.);
#337=ORIENTED_EDGE('',*,*,#253,.F.);
#338=ORIENTED_EDGE('',*,*,#254,.F.);
#339=ORIENTED_EDGE('',*,*,#255,.F.);
#340=ORIENTED_EDGE('',*,*,#256,.T.);
#341=ORIENTED_EDGE('',*,*,#257,.T.);
#342=ORIENTED_EDGE('',*,*,#256,.F.);
#343=ORIENTED_EDGE('',*,*,#257,.F.);
#344=ORIENTED_EDGE('',*,*,#226,.F.);
#345=ORIENTED_EDGE('',*,*,#258,.F.);
#346=ORIENTED_EDGE('',*,*,#259,.F.);
#347=ORIENTED_EDGE('',*,*,#230,.T.);
#348=ORIENTED_EDGE('',*,*,#225,.F.);
#349=ORIENTED_EDGE('',*,*,#229,.F.);
#350=ORIENTED_EDGE('',*,*,#236,.F.);
#351=ORIENTED_EDGE('',*,*,#260,.F.);
#352=ORIENTED_EDGE('',*,*,#258,.T.);
#353=ORIENTED_EDGE('',*,*,#210,.T.);
#354=ORIENTED_EDGE('',*,*,#214,.T.);
#355=ORIENTED_EDGE('',*,*,#217,.T.);
#356=ORIENTED_EDGE('',*,*,#220,.T.);
#357=ORIENTED_EDGE('',*,*,#222,.T.);
#358=ORIENTED_EDGE('',*,*,#234,.F.);
#359=ORIENTED_EDGE('',*,*,#243,.T.);
#360=ORIENTED_EDGE('',*,*,#239,.F.);
#361=ORIENTED_EDGE('',*,*,#261,.F.);
#362=ORIENTED_EDGE('',*,*,#235,.F.);
#363=ORIENTED_EDGE('',*,*,#261,.T.);
#364=ORIENTED_EDGE('',*,*,#238,.F.);
#365=ORIENTED_EDGE('',*,*,#231,.T.);
#366=ORIENTED_EDGE('',*,*,#259,.T.);
#367=ORIENTED_EDGE('',*,*,#260,.T.);
#368=ORIENTED_EDGE('',*,*,#252,.T.);
#369=ORIENTED_EDGE('',*,*,#255,.T.);
#370=PLANE('',#434);
#371=PLANE('',#435);
#372=PLANE('',#436);
#373=PLANE('',#437);
#374=PLANE('',#444);
#375=PLANE('',#445);
#376=PLANE('',#453);
#377=PLANE('',#454);
#378=PLANE('',#455);
#379=PLANE('',#456);
#380=PLANE('',#457);
#381=PLANE('',#461);
#382=PLANE('',#465);
#383=PLANE('',#466);
#384=PLANE('',#467);
#385=PLANE('',#468);
#386=PLANE('',#469);
#387=ADVANCED_FACE('',(#38),#370,.F.);
#388=ADVANCED_FACE('',(#39),#371,.F.);
#389=ADVANCED_FACE('',(#40),#372,.F.);
#390=ADVANCED_FACE('',(#41),#373,.F.);
#391=ADVANCED_FACE('',(#42),#31,.F.);
#392=ADVANCED_FACE('',(#43),#32,.T.);
#393=ADVANCED_FACE('',(#44),#374,.T.);
#394=ADVANCED_FACE('',(#45,#17),#375,.T.);
#395=ADVANCED_FACE('',(#46),#33,.T.);
#396=ADVANCED_FACE('',(#47),#34,.T.);
#397=ADVANCED_FACE('',(#48),#35,.T.);
#398=ADVANCED_FACE('',(#49),#376,.F.);
#399=ADVANCED_FACE('',(#50),#377,.F.);
#400=ADVANCED_FACE('',(#51),#378,.F.);
#401=ADVANCED_FACE('',(#52),#379,.F.);
#402=ADVANCED_FACE('',(#53),#380,.F.);
#403=ADVANCED_FACE('',(#54),#36,.F.);
#404=ADVANCED_FACE('',(#55),#381,.T.);
#405=ADVANCED_FACE('',(#56),#37,.F.);
#406=ADVANCED_FACE('',(#57),#382,.T.);
#407=ADVANCED_FACE('',(#58),#383,.T.);
#408=ADVANCED_FACE('',(#59,#18),#384,.T.);
#409=ADVANCED_FACE('',(#60),#385,.T.);
#410=ADVANCED_FACE('',(#61,#19,#20),#386,.T.);
#411=CLOSED_SHELL('',(#387,#388,#389,#390,#391,#392,#393,#394,#395,#396,
#397,#398,#399,#400,#401,#402,#403,#404,#405,#406,#407,#408,#409,#410));
#412=DERIVED_UNIT_ELEMENT(#415,1.);
#413=DERIVED_UNIT_ELEMENT(#704,-3.);
#414=DIMENSIONAL_EXPONENTS(0.,1.,0.,0.,0.,0.,0.);
#415=(
CONVERSION_BASED_UNIT('gram',#417)
MASS_UNIT()
NAMED_UNIT(#414)
);
#416=(
MASS_UNIT()
NAMED_UNIT(*)
SI_UNIT(.KILO.,.GRAM.)
);
#417=MASS_MEASURE_WITH_UNIT(MASS_MEASURE(0.001),#416);
#418=DERIVED_UNIT((#412,#413));
#419=MEASURE_REPRESENTATION_ITEM('density measure',
POSITIVE_RATIO_MEASURE(1.),#418);
#420=PROPERTY_DEFINITION_REPRESENTATION(#425,#422);
#421=PROPERTY_DEFINITION_REPRESENTATION(#426,#423);
#422=REPRESENTATION('material name',(#424),#701);
#423=REPRESENTATION('density',(#419),#701);
#424=DESCRIPTIVE_REPRESENTATION_ITEM('\X2\04220438043F043E0432044B0435\X0\',
'\X2\04220438043F043E0432044B0435\X0\');
#425=PROPERTY_DEFINITION('material property','material name',#711);
#426=PROPERTY_DEFINITION('material property','density of part',#711);
#427=DATE_TIME_ROLE('creation_date');
#428=APPLIED_DATE_AND_TIME_ASSIGNMENT(#429,#427,(#711));
#429=DATE_AND_TIME(#430,#431);
#430=CALENDAR_DATE(2025,24,9);
#431=LOCAL_TIME(0,0,0.,#432);
#432=COORDINATED_UNIVERSAL_TIME_OFFSET(0,0,.BEHIND.);
#433=AXIS2_PLACEMENT_3D('placement',#586,#470,#471);
#434=AXIS2_PLACEMENT_3D('',#587,#472,#473);
#435=AXIS2_PLACEMENT_3D('',#596,#478,#479);
#436=AXIS2_PLACEMENT_3D('',#602,#483,#484);
#437=AXIS2_PLACEMENT_3D('',#608,#488,#489);
#438=AXIS2_PLACEMENT_3D('',#614,#493,#494);
#439=AXIS2_PLACEMENT_3D('',#615,#495,#496);
#440=AXIS2_PLACEMENT_3D('',#616,#497,#498);
#441=AXIS2_PLACEMENT_3D('',#617,#499,#500);
#442=AXIS2_PLACEMENT_3D('',#620,#501,#502);
#443=AXIS2_PLACEMENT_3D('',#624,#504,#505);
#444=AXIS2_PLACEMENT_3D('',#626,#507,#508);
#445=AXIS2_PLACEMENT_3D('',#632,#512,#513);
#446=AXIS2_PLACEMENT_3D('',#638,#517,#518);
#447=AXIS2_PLACEMENT_3D('',#645,#521,#522);
#448=AXIS2_PLACEMENT_3D('',#647,#524,#525);
#449=AXIS2_PLACEMENT_3D('',#648,#526,#527);
#450=AXIS2_PLACEMENT_3D('',#650,#528,#529);
#451=AXIS2_PLACEMENT_3D('',#655,#532,#533);
#452=AXIS2_PLACEMENT_3D('',#656,#534,#535);
#453=AXIS2_PLACEMENT_3D('',#658,#537,#538);
#454=AXIS2_PLACEMENT_3D('',#665,#543,#544);
#455=AXIS2_PLACEMENT_3D('',#669,#547,#548);
#456=AXIS2_PLACEMENT_3D('',#673,#551,#552);
#457=AXIS2_PLACEMENT_3D('',#675,#554,#555);
#458=AXIS2_PLACEMENT_3D('',#676,#556,#557);
#459=AXIS2_PLACEMENT_3D('',#678,#558,#559);
#460=AXIS2_PLACEMENT_3D('',#681,#561,#562);
#461=AXIS2_PLACEMENT_3D('',#682,#563,#564);
#462=AXIS2_PLACEMENT_3D('',#683,#565,#566);
#463=AXIS2_PLACEMENT_3D('',#685,#567,#568);
#464=AXIS2_PLACEMENT_3D('',#688,#570,#571);
#465=AXIS2_PLACEMENT_3D('',#689,#572,#573);
#466=AXIS2_PLACEMENT_3D('',#690,#574,#575);
#467=AXIS2_PLACEMENT_3D('',#694,#578,#579);
#468=AXIS2_PLACEMENT_3D('',#696,#581,#582);
#469=AXIS2_PLACEMENT_3D('',#698,#584,#585);
#470=DIRECTION('axis',(0.,0.,1.));
#471=DIRECTION('refdir',(1.,0.,0.));
#472=DIRECTION('center_axis',(1.,0.,0.));
#473=DIRECTION('ref_axis',(0.,0.,1.));
#474=DIRECTION('',(0.,0.,1.));
#475=DIRECTION('',(0.,-1.,0.));
#476=DIRECTION('',(0.,0.,-1.));
#477=DIRECTION('',(0.,-1.,0.));
#478=DIRECTION('center_axis',(0.,0.,-1.));
#479=DIRECTION('ref_axis',(1.,-4.6398306772833E-17,0.));
#480=DIRECTION('',(1.,-4.6398306772833E-17,0.));
#481=DIRECTION('',(0.,-1.,0.));
#482=DIRECTION('',(-1.,4.6398306772833E-17,0.));
#483=DIRECTION('center_axis',(-1.,0.,0.));
#484=DIRECTION('ref_axis',(0.,0.,-1.));
#485=DIRECTION('',(0.,0.,-1.));
#486=DIRECTION('',(0.,-1.,0.));
#487=DIRECTION('',(0.,0.,1.));
#488=DIRECTION('center_axis',(0.,0.,1.));
#489=DIRECTION('ref_axis',(-1.,4.6398306772833E-17,0.));
#490=DIRECTION('',(-1.,4.6398306772833E-17,0.));
#491=DIRECTION('',(0.,-1.,0.));
#492=DIRECTION('',(1.,-4.6398306772833E-17,0.));
#493=DIRECTION('center_axis',(0.,-1.,0.));
#494=DIRECTION('ref_axis',(0.,0.,1.));
#495=DIRECTION('center_axis',(-4.6398306772833E-17,-1.,0.));
#496=DIRECTION('ref_axis',(0.,0.,1.));
#497=DIRECTION('center_axis',(4.6398306772833E-17,1.,0.));
#498=DIRECTION('ref_axis',(0.,0.,1.));
#499=DIRECTION('center_axis',(4.6398306772833E-17,1.,0.));
#500=DIRECTION('ref_axis',(0.707106781186547,0.,0.707106781186548));
#501=DIRECTION('center_axis',(-4.6398306772833E-17,-1.,0.));
#502=DIRECTION('ref_axis',(0.707106781186547,0.,0.707106781186548));
#503=DIRECTION('',(-4.6398306772833E-17,-1.,0.));
#504=DIRECTION('center_axis',(4.6398306772833E-17,1.,0.));
#505=DIRECTION('ref_axis',(0.707106781186547,0.,0.707106781186548));
#506=DIRECTION('',(4.6398306772833E-17,1.,0.));
#507=DIRECTION('center_axis',(0.,0.,1.));
#508=DIRECTION('ref_axis',(1.,0.,0.));
#509=DIRECTION('',(-1.,4.6398306772833E-17,-5.29395592033943E-23));
#510=DIRECTION('',(4.6398306772833E-17,1.,0.));
#511=DIRECTION('',(1.,-4.6398306772833E-17,5.29395592033943E-23));
#512=DIRECTION('center_axis',(4.6398306772833E-17,1.,0.));
#513=DIRECTION('ref_axis',(-1.,4.6398306772833E-17,-5.29395592033943E-23));
#514=DIRECTION('',(0.,0.,1.));
#515=DIRECTION('',(1.,-4.6398306772833E-17,5.29395592033943E-23));
#516=DIRECTION('',(0.,0.,-1.));
#517=DIRECTION('center_axis',(0.,0.,1.));
#518=DIRECTION('ref_axis',(-0.707106781186547,-0.707106781186548,0.));
#519=DIRECTION('',(0.,0.,-1.));
#520=DIRECTION('',(0.,0.,-1.));
#521=DIRECTION('center_axis',(-5.29395592033943E-23,2.5229008682868E-23,
1.));
#522=DIRECTION('ref_axis',(-0.707106781186547,-0.707106781186548,0.));
#523=DIRECTION('',(0.,0.,1.));
#524=DIRECTION('center_axis',(0.,-0.707106781186548,-0.707106781186547));
#525=DIRECTION('ref_axis',(0.,0.707106781186547,-0.707106781186548));
#526=DIRECTION('center_axis',(0.,0.,1.));
#527=DIRECTION('ref_axis',(-0.70710678118655,0.707106781186545,0.));
#528=DIRECTION('center_axis',(-5.29395592033943E-23,2.5229008682868E-23,
1.));
#529=DIRECTION('ref_axis',(-0.70710678118655,0.707106781186545,0.));
#530=DIRECTION('',(0.,0.,1.));
#531=DIRECTION('',(0.,0.,1.));
#532=DIRECTION('center_axis',(0.,0.707106781186548,-0.707106781186547));
#533=DIRECTION('ref_axis',(0.,-0.707106781186547,-0.707106781186548));
#534=DIRECTION('center_axis',(-4.6398306772833E-17,-1.,0.));
#535=DIRECTION('ref_axis',(-0.707106781186549,0.,0.707106781186546));
#536=DIRECTION('',(-4.6398306772833E-17,-1.,0.));
#537=DIRECTION('center_axis',(0.,0.,-1.));
#538=DIRECTION('ref_axis',(4.6398306772833E-17,1.,0.));
#539=DIRECTION('',(4.6398306772833E-17,1.,0.));
#540=DIRECTION('',(1.,0.,0.));
#541=DIRECTION('',(4.6398306772833E-17,1.,0.));
#542=DIRECTION('',(1.,0.,0.));
#543=DIRECTION('center_axis',(0.,-1.,0.));
#544=DIRECTION('ref_axis',(0.,0.,-1.));
#545=DIRECTION('',(1.,0.,0.));
#546=DIRECTION('',(0.,0.,-1.));
#547=DIRECTION('center_axis',(0.,0.,1.));
#548=DIRECTION('ref_axis',(-4.6398306772833E-17,-1.,0.));
#549=DIRECTION('',(1.,0.,0.));
#550=DIRECTION('',(-4.6398306772833E-17,-1.,0.));
#551=DIRECTION('center_axis',(0.,1.,0.));
#552=DIRECTION('ref_axis',(0.,0.,1.));
#553=DIRECTION('',(0.,0.,1.));
#554=DIRECTION('center_axis',(1.,0.,0.));
#555=DIRECTION('ref_axis',(0.,0.,-1.));
#556=DIRECTION('center_axis',(0.,0.,1.));
#557=DIRECTION('ref_axis',(-1.,4.6398306772833E-17,0.));
#558=DIRECTION('center_axis',(-5.29395592033943E-23,2.5229008682868E-23,
1.));
#559=DIRECTION('ref_axis',(-1.,4.6398306772833E-17,0.));
#560=DIRECTION('',(0.,0.,1.));
#561=DIRECTION('center_axis',(-5.29395592033943E-23,2.5229008682868E-23,
1.));
#562=DIRECTION('ref_axis',(-1.,4.6398306772833E-17,-5.29395592033943E-23));
#563=DIRECTION('center_axis',(5.29395592033943E-23,-2.5229008682868E-23,
-1.));
#564=DIRECTION('ref_axis',(-1.,0.,-5.29395592033943E-23));
#565=DIRECTION('center_axis',(0.,0.,1.));
#566=DIRECTION('ref_axis',(-1.,4.6398306772833E-17,0.));
#567=DIRECTION('center_axis',(-5.29395592033943E-23,2.5229008682868E-23,
1.));
#568=DIRECTION('ref_axis',(-1.,4.6398306772833E-17,0.));
#569=DIRECTION('',(0.,0.,1.));
#570=DIRECTION('center_axis',(-5.29395592033943E-23,2.5229008682868E-23,
1.));
#571=DIRECTION('ref_axis',(-1.,4.6398306772833E-17,-5.29395592033943E-23));
#572=DIRECTION('center_axis',(5.29395592033943E-23,-2.5229008682868E-23,
-1.));
#573=DIRECTION('ref_axis',(-1.,0.,-5.29395592033943E-23));
#574=DIRECTION('center_axis',(1.,-4.6398306772833E-17,0.));
#575=DIRECTION('ref_axis',(4.6398306772833E-17,1.,-2.5229008682868E-23));
#576=DIRECTION('',(0.,0.,1.));
#577=DIRECTION('',(-4.6398306772833E-17,-1.,2.5229008682868E-23));
#578=DIRECTION('center_axis',(-4.6398306772833E-17,-1.,0.));
#579=DIRECTION('ref_axis',(1.,-4.6398306772833E-17,5.29395592033943E-23));
#580=DIRECTION('',(-1.,4.6398306772833E-17,-5.29395592033943E-23));
#581=DIRECTION('center_axis',(-1.,4.6398306772833E-17,0.));
#582=DIRECTION('ref_axis',(-4.6398306772833E-17,-1.,2.5229008682868E-23));
#583=DIRECTION('',(4.6398306772833E-17,1.,-2.5229008682868E-23));
#584=DIRECTION('center_axis',(5.29395592033943E-23,-2.5229008682868E-23,
-1.));
#585=DIRECTION('ref_axis',(-1.,0.,-5.29395592033943E-23));
#586=CARTESIAN_POINT('',(0.,0.,0.));
#587=CARTESIAN_POINT('Origin',(-63.7523670753365,16.4322609535686,10.5653093480555));
#588=CARTESIAN_POINT('',(-63.7523670753365,16.4322609535686,10.5653093480555));
#589=CARTESIAN_POINT('',(-63.7523670753365,16.4322609535686,17.9999999999998));
#590=CARTESIAN_POINT('',(-63.7523670753365,16.4322609535686,3.28265467402764));
#591=CARTESIAN_POINT('',(-63.7523670753365,-18.5677390464314,10.5653093480555));
#592=CARTESIAN_POINT('',(-63.7523670753365,16.4322609535686,10.5653093480555));
#593=CARTESIAN_POINT('',(-63.7523670753365,-18.5677390464314,17.9999999999998));
#594=CARTESIAN_POINT('',(-63.7523670753365,-18.5677390464314,3.28265467402764));
#595=CARTESIAN_POINT('',(-63.7523670753365,16.4322609535686,17.9999999999998));
#596=CARTESIAN_POINT('Origin',(-72.6601161931955,16.4322609535686,10.5653093480555));
#597=CARTESIAN_POINT('',(-72.6601161931955,16.4322609535686,10.5653093480555));
#598=CARTESIAN_POINT('',(-67.1831789137307,16.4322609535686,10.5653093480555));
#599=CARTESIAN_POINT('',(-72.6601161931955,-18.5677390464314,10.5653093480555));
#600=CARTESIAN_POINT('',(-72.6601161931955,16.4322609535686,10.5653093480555));
#601=CARTESIAN_POINT('',(-74.6831789137307,-18.5677390464314,10.5653093480555));
#602=CARTESIAN_POINT('Origin',(-72.6601161931955,16.4322609535686,23.9538745589293));
#603=CARTESIAN_POINT('',(-72.6601161931955,16.4322609535686,23.9538745589293));
#604=CARTESIAN_POINT('',(-72.6601161931954,16.4322609535686,9.97693727946458));
#605=CARTESIAN_POINT('',(-72.6601161931955,-18.5677390464314,23.9538745589293));
#606=CARTESIAN_POINT('',(-72.6601161931955,16.4322609535686,23.9538745589293));
#607=CARTESIAN_POINT('',(-72.6601161931954,-18.5677390464314,9.97693727946458));
#608=CARTESIAN_POINT('Origin',(-69.706241634266,16.4322609535686,23.9538745589293));
#609=CARTESIAN_POINT('',(-69.706241634266,16.4322609535686,23.9538745589293));
#610=CARTESIAN_POINT('',(-65.706241634266,16.4322609535686,23.9538745589293));
#611=CARTESIAN_POINT('',(-69.706241634266,-18.5677390464314,23.9538745589293));
#612=CARTESIAN_POINT('',(-69.706241634266,16.4322609535686,23.9538745589293));
#613=CARTESIAN_POINT('',(-73.206241634266,-18.5677390464314,23.9538745589293));
#614=CARTESIAN_POINT('Origin',(-69.706241634266,16.4322609535686,17.9999999999998));
#615=CARTESIAN_POINT('Origin',(-69.706241634266,16.4322609535686,17.9999999999998));
#616=CARTESIAN_POINT('Origin',(-69.706241634266,-18.5677390464314,17.9999999999998));
#617=CARTESIAN_POINT('Origin',(-69.706241634266,-9.81773904643139,17.9999999999998));
#618=CARTESIAN_POINT('',(-61.706241634266,16.4322609535686,17.9999999999998));
#619=CARTESIAN_POINT('',(-69.706241634266,16.4322609535686,25.9999999999998));
#620=CARTESIAN_POINT('Origin',(-69.706241634266,16.4322609535686,17.9999999999998));
#621=CARTESIAN_POINT('',(-69.706241634266,-18.5677390464314,25.9999999999998));
#622=CARTESIAN_POINT('',(-69.706241634266,-9.81773904643139,25.9999999999998));
#623=CARTESIAN_POINT('',(-61.706241634266,-18.5677390464314,17.9999999999998));
#624=CARTESIAN_POINT('Origin',(-69.706241634266,-18.5677390464314,17.9999999999998));
#625=CARTESIAN_POINT('',(-61.706241634266,-9.81773904643139,17.9999999999998));
#626=CARTESIAN_POINT('Origin',(-69.206241634266,-1.06773904643139,25.9999999999998));
#627=CARTESIAN_POINT('',(-74.706241634266,16.4322609535686,25.9999999999998));
#628=CARTESIAN_POINT('',(-76.706241634266,16.4322609535686,25.9999999999998));
#629=CARTESIAN_POINT('',(-74.706241634266,-18.5677390464314,25.9999999999998));
#630=CARTESIAN_POINT('',(-74.706241634266,7.68226095356861,25.9999999999998));
#631=CARTESIAN_POINT('',(-61.706241634266,-18.5677390464314,25.9999999999998));
#632=CARTESIAN_POINT('Origin',(-61.706241634266,16.4322609535686,-4.00000000000017));
#633=CARTESIAN_POINT('',(-61.706241634266,16.4322609535686,-4.00000000000017));
#634=CARTESIAN_POINT('',(-61.706241634266,16.4322609535686,-4.00000000000017));
#635=CARTESIAN_POINT('',(-74.706241634266,16.4322609535686,-4.00000000000017));
#636=CARTESIAN_POINT('',(-76.706241634266,16.4322609535686,-4.00000000000017));
#637=CARTESIAN_POINT('',(-74.706241634266,16.4322609535686,-4.00000000000017));
#638=CARTESIAN_POINT('Origin',(-74.706241634266,-16.5677390464314,-4.00000000000017));
#639=CARTESIAN_POINT('',(-76.706241634266,-16.5677390464459,24.0000000000144));
#640=CARTESIAN_POINT('',(-76.706241634266,-16.5677390464459,-2.00000000001472));
#641=CARTESIAN_POINT('',(-76.706241634266,-16.5677390464459,10.0000000000071));
#642=CARTESIAN_POINT('',(-76.706241634266,-16.5677390464314,-4.00000000000017));
#643=CARTESIAN_POINT('',(-76.706241634266,-16.5677390464314,-4.00000000000017));
#644=CARTESIAN_POINT('',(-74.706241634266,-18.5677390464314,-4.00000000000017));
#645=CARTESIAN_POINT('Origin',(-74.706241634266,-16.5677390464314,-4.00000000000017));
#646=CARTESIAN_POINT('',(-74.706241634266,-18.5677390464314,-4.00000000000017));
#647=CARTESIAN_POINT('Origin',(-74.706241634266,-16.5677390464314,23.9999999999998));
#648=CARTESIAN_POINT('Origin',(-74.706241634266,14.4322609535686,-4.00000000000017));
#649=CARTESIAN_POINT('',(-76.706241634266,14.4322609535686,-4.00000000000017));
#650=CARTESIAN_POINT('Origin',(-74.706241634266,14.4322609535686,-4.00000000000017));
#651=CARTESIAN_POINT('',(-76.706241634266,14.4322609535832,-2.00000000001472));
#652=CARTESIAN_POINT('',(-76.706241634266,14.4322609535686,-4.00000000000017));
#653=CARTESIAN_POINT('',(-76.706241634266,14.4322609535832,24.0000000000144));
#654=CARTESIAN_POINT('',(-76.706241634266,14.4322609535832,-3.00000000000744));
#655=CARTESIAN_POINT('Origin',(-74.706241634266,14.4322609535686,23.9999999999998));
#656=CARTESIAN_POINT('Origin',(-74.706241634266,7.68226095356861,23.9999999999998));
#657=CARTESIAN_POINT('',(-76.706241634266,15.4322609535759,24.0000000000144));
#658=CARTESIAN_POINT('Origin',(-76.706241634266,-16.5677390464459,-2.00000000001472));
#659=CARTESIAN_POINT('',(-76.706241634266,-0.067739046438664,-2.00000000001472));
#660=CARTESIAN_POINT('',(-75.206241634266,-16.5677390464459,-2.00000000001472));
#661=CARTESIAN_POINT('',(-76.706241634266,-16.5677390464459,-2.00000000001472));
#662=CARTESIAN_POINT('',(-75.206241634266,14.4322609535832,-2.00000000001472));
#663=CARTESIAN_POINT('',(-75.206241634266,14.4322609535832,-2.00000000001472));
#664=CARTESIAN_POINT('',(-76.706241634266,14.4322609535832,-2.00000000001472));
#665=CARTESIAN_POINT('Origin',(-76.706241634266,-16.5677390464459,24.0000000000144));
#666=CARTESIAN_POINT('',(-75.206241634266,-16.5677390464459,24.0000000000144));
#667=CARTESIAN_POINT('',(-76.706241634266,-16.5677390464459,24.0000000000144));
#668=CARTESIAN_POINT('',(-75.206241634266,-16.5677390464459,-2.00000000001472));
#669=CARTESIAN_POINT('Origin',(-76.706241634266,14.4322609535832,24.0000000000144));
#670=CARTESIAN_POINT('',(-75.206241634266,14.4322609535832,24.0000000000144));
#671=CARTESIAN_POINT('',(-76.706241634266,14.4322609535832,24.0000000000144));
#672=CARTESIAN_POINT('',(-75.206241634266,-16.5677390464459,24.0000000000144));
#673=CARTESIAN_POINT('Origin',(-76.706241634266,14.4322609535832,-2.00000000001472));
#674=CARTESIAN_POINT('',(-75.206241634266,14.4322609535832,24.0000000000144));
#675=CARTESIAN_POINT('Origin',(-75.206241634266,-1.06773904643139,10.9999999999998));
#676=CARTESIAN_POINT('Origin',(-69.206241634266,-9.81773904643139,-4.00000000000017));
#677=CARTESIAN_POINT('',(-67.406241634266,-9.81773904643139,-4.00000000000017));
#678=CARTESIAN_POINT('Origin',(-69.206241634266,-9.81773904643139,-4.00000000000017));
#679=CARTESIAN_POINT('',(-67.406241634266,-9.81773904643139,-1.69309011255336E-13));
#680=CARTESIAN_POINT('',(-67.406241634266,-9.81773904643139,-4.00000000000017));
#681=CARTESIAN_POINT('Origin',(-69.206241634266,-9.81773904643139,-1.68753899743024E-13));
#682=CARTESIAN_POINT('Origin',(-69.206241634266,-9.81773904643139,-1.68753899743024E-13));
#683=CARTESIAN_POINT('Origin',(-69.206241634266,7.68226095356861,-4.00000000000017));
#684=CARTESIAN_POINT('',(-67.406241634266,7.68226095356861,-4.00000000000017));
#685=CARTESIAN_POINT('Origin',(-69.206241634266,7.68226095356861,-4.00000000000017));
#686=CARTESIAN_POINT('',(-67.406241634266,7.68226095356861,-1.69309011255336E-13));
#687=CARTESIAN_POINT('',(-67.406241634266,7.68226095356861,-4.00000000000017));
#688=CARTESIAN_POINT('Origin',(-69.206241634266,7.68226095356861,-1.68753899743024E-13));
#689=CARTESIAN_POINT('Origin',(-69.206241634266,7.68226095356861,-1.68753899743024E-13));
#690=CARTESIAN_POINT('Origin',(-61.706241634266,-18.5677390464314,-4.00000000000017));
#691=CARTESIAN_POINT('',(-61.706241634266,-18.5677390464314,-4.00000000000017));
#692=CARTESIAN_POINT('',(-61.706241634266,-18.5677390464314,-4.00000000000017));
#693=CARTESIAN_POINT('',(-61.706241634266,16.4322609535686,-4.00000000000017));
#694=CARTESIAN_POINT('Origin',(-76.706241634266,-18.5677390464314,-4.00000000000017));
#695=CARTESIAN_POINT('',(-61.706241634266,-18.5677390464314,-4.00000000000017));
#696=CARTESIAN_POINT('Origin',(-76.706241634266,16.4322609535686,-4.00000000000017));
#697=CARTESIAN_POINT('',(-76.706241634266,-18.5677390464314,-4.00000000000017));
#698=CARTESIAN_POINT('Origin',(-69.206241634266,-1.06773904643139,-4.00000000000017));
#699=UNCERTAINTY_MEASURE_WITH_UNIT(LENGTH_MEASURE(0.01),#703,
'DISTANCE_ACCURACY_VALUE',
'Maximum model space distance between geometric entities at asserted c
onnectivities');
#700=UNCERTAINTY_MEASURE_WITH_UNIT(LENGTH_MEASURE(0.01),#703,
'DISTANCE_ACCURACY_VALUE',
'Maximum model space distance between geometric entities at asserted c
onnectivities');
#701=(
GEOMETRIC_REPRESENTATION_CONTEXT(3)
GLOBAL_UNCERTAINTY_ASSIGNED_CONTEXT((#699))
GLOBAL_UNIT_ASSIGNED_CONTEXT((#703,#705,#706))
REPRESENTATION_CONTEXT('','3D')
);
#702=(
GEOMETRIC_REPRESENTATION_CONTEXT(3)
GLOBAL_UNCERTAINTY_ASSIGNED_CONTEXT((#700))
GLOBAL_UNIT_ASSIGNED_CONTEXT((#703,#705,#706))
REPRESENTATION_CONTEXT('','3D')
);
#703=(
LENGTH_UNIT()
NAMED_UNIT(*)
SI_UNIT(.MILLI.,.METRE.)
);
#704=(
LENGTH_UNIT()
NAMED_UNIT(*)
SI_UNIT(.CENTI.,.METRE.)
);
#705=(
NAMED_UNIT(*)
PLANE_ANGLE_UNIT()
SI_UNIT($,.RADIAN.)
);
#706=(
NAMED_UNIT(*)
SI_UNIT($,.STERADIAN.)
SOLID_ANGLE_UNIT()
);
#707=SHAPE_DEFINITION_REPRESENTATION(#708,#709);
#708=PRODUCT_DEFINITION_SHAPE('',$,#711);
#709=SHAPE_REPRESENTATION('',(#433),#701);
#710=PRODUCT_DEFINITION_CONTEXT('part definition',#715,'design');
#711=PRODUCT_DEFINITION('\X2\0414043504420430043B044C\X0\2',
'\X2\0414043504420430043B044C\X0\2',#712,#710);
#712=PRODUCT_DEFINITION_FORMATION('',$,#717);
#713=PRODUCT_RELATED_PRODUCT_CATEGORY('\X2\0414043504420430043B044C\X0\2',
'\X2\0414043504420430043B044C\X0\2',(#717));
#714=APPLICATION_PROTOCOL_DEFINITION('international standard',
'automotive_design',2009,#715);
#715=APPLICATION_CONTEXT(
'Core Data for Automotive Mechanical Design Process');
#716=PRODUCT_CONTEXT('part definition',#715,'mechanical');
#717=PRODUCT('\X2\0414043504420430043B044C\X0\2','\X2\0414043504420430043B044C\X0\2',
$,(#716));
#718=PRESENTATION_STYLE_ASSIGNMENT((#719));
#719=SURFACE_STYLE_USAGE(.BOTH.,#722);
#720=SURFACE_STYLE_RENDERING_WITH_PROPERTIES($,#726,(#721));
#721=SURFACE_STYLE_TRANSPARENT(0.);
#722=SURFACE_SIDE_STYLE('',(#723,#720));
#723=SURFACE_STYLE_FILL_AREA(#724);
#724=FILL_AREA_STYLE('',(#725));
#725=FILL_AREA_STYLE_COLOUR('',#726);
#726=COLOUR_RGB('',0.749019607843137,0.749019607843137,0.749019607843137);
ENDSEC;
END-ISO-10303-21;
