ISO-10303-21;
HEADER;
/* Generated by software containing ST-Developer
 * from STEP Tools, Inc. (www.steptools.com) 
 */

FILE_DESCRIPTION(
/* description */ (''),
/* implementation_level */ '2;1');

FILE_NAME(
/* name */ '',
/* time_stamp */ '2026-07-17T17:12:37+03:00',
/* author */ ('ejenie'),
/* organization */ (''),
/* preprocessor_version */ 'ST-DEVELOPER v19.2',
/* originating_system */ 'Autodesk Inventor 2024',
/* authorisation */ '');

FILE_SCHEMA (('AUTOMOTIVE_DESIGN { 1 0 10303 214 3 1 1 }'));
ENDSEC;

DATA;
#10=MECHANICAL_DESIGN_GEOMETRIC_PRESENTATION_REPRESENTATION('',(#13),#775);
#11=SHAPE_REPRESENTATION_RELATIONSHIP('SRR','None',#782,#12);
#12=ADVANCED_BREP_SHAPE_REPRESENTATION('',(#14),#774);
#13=STYLED_ITEM('',(#791),#14);
#14=MANIFOLD_SOLID_BREP('\X2\04220432043504400434043E0435\X0\ \X2\04420435043B043E\X0\1',
#454);
#15=FACE_BOUND('',#86,.T.);
#16=FACE_BOUND('',#89,.T.);
#17=FACE_BOUND('',#103,.T.);
#18=FACE_BOUND('',#104,.T.);
#19=FACE_BOUND('',#105,.T.);
#20=FACE_BOUND('',#106,.T.);
#21=FACE_BOUND('',#107,.T.);
#22=FACE_BOUND('',#108,.T.);
#23=FACE_BOUND('',#109,.T.);
#24=PLANE('',#480);
#25=PLANE('',#484);
#26=PLANE('',#488);
#27=PLANE('',#492);
#28=PLANE('',#496);
#29=PLANE('',#500);
#30=PLANE('',#501);
#31=PLANE('',#505);
#32=PLANE('',#506);
#33=PLANE('',#507);
#34=PLANE('',#508);
#35=PLANE('',#509);
#36=PLANE('',#510);
#37=PLANE('',#511);
#38=PLANE('',#512);
#39=PLANE('',#513);
#40=PLANE('',#514);
#41=PLANE('',#515);
#42=PLANE('',#516);
#43=PLANE('',#517);
#44=PLANE('',#518);
#45=FACE_OUTER_BOUND('',#73,.T.);
#46=FACE_OUTER_BOUND('',#74,.T.);
#47=FACE_OUTER_BOUND('',#75,.T.);
#48=FACE_OUTER_BOUND('',#76,.T.);
#49=FACE_OUTER_BOUND('',#77,.T.);
#50=FACE_OUTER_BOUND('',#78,.T.);
#51=FACE_OUTER_BOUND('',#79,.T.);
#52=FACE_OUTER_BOUND('',#80,.T.);
#53=FACE_OUTER_BOUND('',#81,.T.);
#54=FACE_OUTER_BOUND('',#82,.T.);
#55=FACE_OUTER_BOUND('',#83,.T.);
#56=FACE_OUTER_BOUND('',#84,.T.);
#57=FACE_OUTER_BOUND('',#85,.T.);
#58=FACE_OUTER_BOUND('',#87,.T.);
#59=FACE_OUTER_BOUND('',#88,.T.);
#60=FACE_OUTER_BOUND('',#90,.T.);
#61=FACE_OUTER_BOUND('',#91,.T.);
#62=FACE_OUTER_BOUND('',#92,.T.);
#63=FACE_OUTER_BOUND('',#93,.T.);
#64=FACE_OUTER_BOUND('',#94,.T.);
#65=FACE_OUTER_BOUND('',#95,.T.);
#66=FACE_OUTER_BOUND('',#96,.T.);
#67=FACE_OUTER_BOUND('',#97,.T.);
#68=FACE_OUTER_BOUND('',#98,.T.);
#69=FACE_OUTER_BOUND('',#99,.T.);
#70=FACE_OUTER_BOUND('',#100,.T.);
#71=FACE_OUTER_BOUND('',#101,.T.);
#72=FACE_OUTER_BOUND('',#102,.T.);
#73=EDGE_LOOP('',(#305,#306,#307,#308));
#74=EDGE_LOOP('',(#309));
#75=EDGE_LOOP('',(#310,#311,#312,#313));
#76=EDGE_LOOP('',(#314));
#77=EDGE_LOOP('',(#315,#316,#317,#318));
#78=EDGE_LOOP('',(#319));
#79=EDGE_LOOP('',(#320,#321,#322,#323));
#80=EDGE_LOOP('',(#324));
#81=EDGE_LOOP('',(#325,#326,#327,#328));
#82=EDGE_LOOP('',(#329));
#83=EDGE_LOOP('',(#330,#331,#332,#333));
#84=EDGE_LOOP('',(#334));
#85=EDGE_LOOP('',(#335,#336,#337,#338,#339,#340));
#86=EDGE_LOOP('',(#341));
#87=EDGE_LOOP('',(#342,#343,#344,#345));
#88=EDGE_LOOP('',(#346,#347,#348,#349,#350,#351));
#89=EDGE_LOOP('',(#352));
#90=EDGE_LOOP('',(#353,#354,#355,#356));
#91=EDGE_LOOP('',(#357,#358,#359,#360));
#92=EDGE_LOOP('',(#361,#362,#363,#364));
#93=EDGE_LOOP('',(#365,#366,#367,#368));
#94=EDGE_LOOP('',(#369,#370,#371,#372));
#95=EDGE_LOOP('',(#373,#374,#375,#376));
#96=EDGE_LOOP('',(#377,#378,#379,#380));
#97=EDGE_LOOP('',(#381,#382,#383,#384));
#98=EDGE_LOOP('',(#385,#386,#387,#388));
#99=EDGE_LOOP('',(#389,#390,#391,#392));
#100=EDGE_LOOP('',(#393,#394,#395,#396));
#101=EDGE_LOOP('',(#397,#398,#399,#400));
#102=EDGE_LOOP('',(#401,#402,#403,#404,#405,#406));
#103=EDGE_LOOP('',(#407));
#104=EDGE_LOOP('',(#408));
#105=EDGE_LOOP('',(#409));
#106=EDGE_LOOP('',(#410));
#107=EDGE_LOOP('',(#411));
#108=EDGE_LOOP('',(#412));
#109=EDGE_LOOP('',(#413,#414,#415,#416,#417,#418));
#110=LINE('',#653,#153);
#111=LINE('',#660,#154);
#112=LINE('',#667,#155);
#113=LINE('',#674,#156);
#114=LINE('',#681,#157);
#115=LINE('',#688,#158);
#116=LINE('',#694,#159);
#117=LINE('',#696,#160);
#118=LINE('',#698,#161);
#119=LINE('',#700,#162);
#120=LINE('',#702,#163);
#121=LINE('',#703,#164);
#122=LINE('',#709,#165);
#123=LINE('',#713,#166);
#124=LINE('',#715,#167);
#125=LINE('',#717,#168);
#126=LINE('',#719,#169);
#127=LINE('',#721,#170);
#128=LINE('',#722,#171);
#129=LINE('',#726,#172);
#130=LINE('',#727,#173);
#131=LINE('',#728,#174);
#132=LINE('',#731,#175);
#133=LINE('',#732,#176);
#134=LINE('',#735,#177);
#135=LINE('',#736,#178);
#136=LINE('',#739,#179);
#137=LINE('',#740,#180);
#138=LINE('',#743,#181);
#139=LINE('',#744,#182);
#140=LINE('',#746,#183);
#141=LINE('',#750,#184);
#142=LINE('',#751,#185);
#143=LINE('',#752,#186);
#144=LINE('',#755,#187);
#145=LINE('',#756,#188);
#146=LINE('',#759,#189);
#147=LINE('',#760,#190);
#148=LINE('',#763,#191);
#149=LINE('',#764,#192);
#150=LINE('',#767,#193);
#151=LINE('',#768,#194);
#152=LINE('',#770,#195);
#153=VECTOR('',#525,2.);
#154=VECTOR('',#534,2.);
#155=VECTOR('',#543,2.);
#156=VECTOR('',#552,2.);
#157=VECTOR('',#561,2.);
#158=VECTOR('',#570,2.);
#159=VECTOR('',#577,10.);
#160=VECTOR('',#578,10.);
#161=VECTOR('',#579,10.);
#162=VECTOR('',#580,10.);
#163=VECTOR('',#581,10.);
#164=VECTOR('',#582,10.);
#165=VECTOR('',#589,12.5);
#166=VECTOR('',#592,10.);
#167=VECTOR('',#593,10.);
#168=VECTOR('',#594,10.);
#169=VECTOR('',#595,10.);
#170=VECTOR('',#596,10.);
#171=VECTOR('',#597,10.);
#172=VECTOR('',#600,10.);
#173=VECTOR('',#601,10.);
#174=VECTOR('',#602,10.);
#175=VECTOR('',#605,10.);
#176=VECTOR('',#606,10.);
#177=VECTOR('',#609,10.);
#178=VECTOR('',#610,10.);
#179=VECTOR('',#613,10.);
#180=VECTOR('',#614,10.);
#181=VECTOR('',#617,10.);
#182=VECTOR('',#618,10.);
#183=VECTOR('',#621,10.);
#184=VECTOR('',#624,10.);
#185=VECTOR('',#625,10.);
#186=VECTOR('',#626,10.);
#187=VECTOR('',#629,10.);
#188=VECTOR('',#630,10.);
#189=VECTOR('',#633,10.);
#190=VECTOR('',#634,10.);
#191=VECTOR('',#637,10.);
#192=VECTOR('',#638,10.);
#193=VECTOR('',#641,10.);
#194=VECTOR('',#642,10.);
#195=VECTOR('',#645,10.);
#196=CIRCLE('',#478,2.);
#197=CIRCLE('',#479,2.);
#198=CIRCLE('',#482,2.);
#199=CIRCLE('',#483,2.);
#200=CIRCLE('',#486,2.);
#201=CIRCLE('',#487,2.);
#202=CIRCLE('',#490,2.);
#203=CIRCLE('',#491,2.);
#204=CIRCLE('',#494,2.);
#205=CIRCLE('',#495,2.);
#206=CIRCLE('',#498,2.);
#207=CIRCLE('',#499,2.);
#208=CIRCLE('',#502,12.5);
#209=CIRCLE('',#504,12.5);
#210=VERTEX_POINT('',#650);
#211=VERTEX_POINT('',#652);
#212=VERTEX_POINT('',#657);
#213=VERTEX_POINT('',#659);
#214=VERTEX_POINT('',#664);
#215=VERTEX_POINT('',#666);
#216=VERTEX_POINT('',#671);
#217=VERTEX_POINT('',#673);
#218=VERTEX_POINT('',#678);
#219=VERTEX_POINT('',#680);
#220=VERTEX_POINT('',#685);
#221=VERTEX_POINT('',#687);
#222=VERTEX_POINT('',#692);
#223=VERTEX_POINT('',#693);
#224=VERTEX_POINT('',#695);
#225=VERTEX_POINT('',#697);
#226=VERTEX_POINT('',#699);
#227=VERTEX_POINT('',#701);
#228=VERTEX_POINT('',#704);
#229=VERTEX_POINT('',#707);
#230=VERTEX_POINT('',#711);
#231=VERTEX_POINT('',#712);
#232=VERTEX_POINT('',#714);
#233=VERTEX_POINT('',#716);
#234=VERTEX_POINT('',#718);
#235=VERTEX_POINT('',#720);
#236=VERTEX_POINT('',#724);
#237=VERTEX_POINT('',#725);
#238=VERTEX_POINT('',#730);
#239=VERTEX_POINT('',#734);
#240=VERTEX_POINT('',#738);
#241=VERTEX_POINT('',#742);
#242=VERTEX_POINT('',#748);
#243=VERTEX_POINT('',#749);
#244=VERTEX_POINT('',#754);
#245=VERTEX_POINT('',#758);
#246=VERTEX_POINT('',#762);
#247=VERTEX_POINT('',#766);
#248=EDGE_CURVE('',#210,#210,#196,.T.);
#249=EDGE_CURVE('',#210,#211,#110,.T.);
#250=EDGE_CURVE('',#211,#211,#197,.T.);
#251=EDGE_CURVE('',#212,#212,#198,.T.);
#252=EDGE_CURVE('',#212,#213,#111,.T.);
#253=EDGE_CURVE('',#213,#213,#199,.T.);
#254=EDGE_CURVE('',#214,#214,#200,.T.);
#255=EDGE_CURVE('',#214,#215,#112,.T.);
#256=EDGE_CURVE('',#215,#215,#201,.T.);
#257=EDGE_CURVE('',#216,#216,#202,.T.);
#258=EDGE_CURVE('',#216,#217,#113,.T.);
#259=EDGE_CURVE('',#217,#217,#203,.T.);
#260=EDGE_CURVE('',#218,#218,#204,.T.);
#261=EDGE_CURVE('',#218,#219,#114,.T.);
#262=EDGE_CURVE('',#219,#219,#205,.T.);
#263=EDGE_CURVE('',#220,#220,#206,.T.);
#264=EDGE_CURVE('',#220,#221,#115,.T.);
#265=EDGE_CURVE('',#221,#221,#207,.T.);
#266=EDGE_CURVE('',#222,#223,#116,.T.);
#267=EDGE_CURVE('',#223,#224,#117,.T.);
#268=EDGE_CURVE('',#224,#225,#118,.T.);
#269=EDGE_CURVE('',#225,#226,#119,.T.);
#270=EDGE_CURVE('',#226,#227,#120,.T.);
#271=EDGE_CURVE('',#227,#222,#121,.T.);
#272=EDGE_CURVE('',#228,#228,#208,.T.);
#273=EDGE_CURVE('',#229,#229,#209,.T.);
#274=EDGE_CURVE('',#229,#228,#122,.T.);
#275=EDGE_CURVE('',#230,#231,#123,.T.);
#276=EDGE_CURVE('',#231,#232,#124,.T.);
#277=EDGE_CURVE('',#232,#233,#125,.T.);
#278=EDGE_CURVE('',#233,#234,#126,.T.);
#279=EDGE_CURVE('',#234,#235,#127,.T.);
#280=EDGE_CURVE('',#235,#230,#128,.T.);
#281=EDGE_CURVE('',#236,#237,#129,.T.);
#282=EDGE_CURVE('',#237,#223,#130,.T.);
#283=EDGE_CURVE('',#236,#222,#131,.T.);
#284=EDGE_CURVE('',#238,#236,#132,.T.);
#285=EDGE_CURVE('',#238,#227,#133,.T.);
#286=EDGE_CURVE('',#239,#238,#134,.T.);
#287=EDGE_CURVE('',#239,#226,#135,.T.);
#288=EDGE_CURVE('',#240,#239,#136,.T.);
#289=EDGE_CURVE('',#240,#225,#137,.T.);
#290=EDGE_CURVE('',#241,#240,#138,.T.);
#291=EDGE_CURVE('',#241,#224,#139,.T.);
#292=EDGE_CURVE('',#237,#241,#140,.T.);
#293=EDGE_CURVE('',#242,#243,#141,.T.);
#294=EDGE_CURVE('',#243,#232,#142,.T.);
#295=EDGE_CURVE('',#242,#231,#143,.T.);
#296=EDGE_CURVE('',#244,#242,#144,.T.);
#297=EDGE_CURVE('',#244,#230,#145,.T.);
#298=EDGE_CURVE('',#245,#244,#146,.T.);
#299=EDGE_CURVE('',#245,#235,#147,.T.);
#300=EDGE_CURVE('',#246,#245,#148,.T.);
#301=EDGE_CURVE('',#246,#234,#149,.T.);
#302=EDGE_CURVE('',#247,#246,#150,.T.);
#303=EDGE_CURVE('',#247,#233,#151,.T.);
#304=EDGE_CURVE('',#243,#247,#152,.T.);
#305=ORIENTED_EDGE('',*,*,#248,.F.);
#306=ORIENTED_EDGE('',*,*,#249,.T.);
#307=ORIENTED_EDGE('',*,*,#250,.T.);
#308=ORIENTED_EDGE('',*,*,#249,.F.);
#309=ORIENTED_EDGE('',*,*,#250,.F.);
#310=ORIENTED_EDGE('',*,*,#251,.F.);
#311=ORIENTED_EDGE('',*,*,#252,.T.);
#312=ORIENTED_EDGE('',*,*,#253,.T.);
#313=ORIENTED_EDGE('',*,*,#252,.F.);
#314=ORIENTED_EDGE('',*,*,#253,.F.);
#315=ORIENTED_EDGE('',*,*,#254,.F.);
#316=ORIENTED_EDGE('',*,*,#255,.T.);
#317=ORIENTED_EDGE('',*,*,#256,.T.);
#318=ORIENTED_EDGE('',*,*,#255,.F.);
#319=ORIENTED_EDGE('',*,*,#256,.F.);
#320=ORIENTED_EDGE('',*,*,#257,.F.);
#321=ORIENTED_EDGE('',*,*,#258,.T.);
#322=ORIENTED_EDGE('',*,*,#259,.T.);
#323=ORIENTED_EDGE('',*,*,#258,.F.);
#324=ORIENTED_EDGE('',*,*,#259,.F.);
#325=ORIENTED_EDGE('',*,*,#260,.F.);
#326=ORIENTED_EDGE('',*,*,#261,.T.);
#327=ORIENTED_EDGE('',*,*,#262,.T.);
#328=ORIENTED_EDGE('',*,*,#261,.F.);
#329=ORIENTED_EDGE('',*,*,#262,.F.);
#330=ORIENTED_EDGE('',*,*,#263,.F.);
#331=ORIENTED_EDGE('',*,*,#264,.T.);
#332=ORIENTED_EDGE('',*,*,#265,.T.);
#333=ORIENTED_EDGE('',*,*,#264,.F.);
#334=ORIENTED_EDGE('',*,*,#265,.F.);
#335=ORIENTED_EDGE('',*,*,#266,.T.);
#336=ORIENTED_EDGE('',*,*,#267,.T.);
#337=ORIENTED_EDGE('',*,*,#268,.T.);
#338=ORIENTED_EDGE('',*,*,#269,.T.);
#339=ORIENTED_EDGE('',*,*,#270,.T.);
#340=ORIENTED_EDGE('',*,*,#271,.T.);
#341=ORIENTED_EDGE('',*,*,#272,.F.);
#342=ORIENTED_EDGE('',*,*,#273,.F.);
#343=ORIENTED_EDGE('',*,*,#274,.T.);
#344=ORIENTED_EDGE('',*,*,#272,.T.);
#345=ORIENTED_EDGE('',*,*,#274,.F.);
#346=ORIENTED_EDGE('',*,*,#275,.T.);
#347=ORIENTED_EDGE('',*,*,#276,.T.);
#348=ORIENTED_EDGE('',*,*,#277,.T.);
#349=ORIENTED_EDGE('',*,*,#278,.T.);
#350=ORIENTED_EDGE('',*,*,#279,.T.);
#351=ORIENTED_EDGE('',*,*,#280,.T.);
#352=ORIENTED_EDGE('',*,*,#273,.T.);
#353=ORIENTED_EDGE('',*,*,#281,.T.);
#354=ORIENTED_EDGE('',*,*,#282,.T.);
#355=ORIENTED_EDGE('',*,*,#266,.F.);
#356=ORIENTED_EDGE('',*,*,#283,.F.);
#357=ORIENTED_EDGE('',*,*,#284,.T.);
#358=ORIENTED_EDGE('',*,*,#283,.T.);
#359=ORIENTED_EDGE('',*,*,#271,.F.);
#360=ORIENTED_EDGE('',*,*,#285,.F.);
#361=ORIENTED_EDGE('',*,*,#286,.T.);
#362=ORIENTED_EDGE('',*,*,#285,.T.);
#363=ORIENTED_EDGE('',*,*,#270,.F.);
#364=ORIENTED_EDGE('',*,*,#287,.F.);
#365=ORIENTED_EDGE('',*,*,#288,.T.);
#366=ORIENTED_EDGE('',*,*,#287,.T.);
#367=ORIENTED_EDGE('',*,*,#269,.F.);
#368=ORIENTED_EDGE('',*,*,#289,.F.);
#369=ORIENTED_EDGE('',*,*,#290,.T.);
#370=ORIENTED_EDGE('',*,*,#289,.T.);
#371=ORIENTED_EDGE('',*,*,#268,.F.);
#372=ORIENTED_EDGE('',*,*,#291,.F.);
#373=ORIENTED_EDGE('',*,*,#292,.T.);
#374=ORIENTED_EDGE('',*,*,#291,.T.);
#375=ORIENTED_EDGE('',*,*,#267,.F.);
#376=ORIENTED_EDGE('',*,*,#282,.F.);
#377=ORIENTED_EDGE('',*,*,#293,.T.);
#378=ORIENTED_EDGE('',*,*,#294,.T.);
#379=ORIENTED_EDGE('',*,*,#276,.F.);
#380=ORIENTED_EDGE('',*,*,#295,.F.);
#381=ORIENTED_EDGE('',*,*,#296,.T.);
#382=ORIENTED_EDGE('',*,*,#295,.T.);
#383=ORIENTED_EDGE('',*,*,#275,.F.);
#384=ORIENTED_EDGE('',*,*,#297,.F.);
#385=ORIENTED_EDGE('',*,*,#298,.T.);
#386=ORIENTED_EDGE('',*,*,#297,.T.);
#387=ORIENTED_EDGE('',*,*,#280,.F.);
#388=ORIENTED_EDGE('',*,*,#299,.F.);
#389=ORIENTED_EDGE('',*,*,#300,.T.);
#390=ORIENTED_EDGE('',*,*,#299,.T.);
#391=ORIENTED_EDGE('',*,*,#279,.F.);
#392=ORIENTED_EDGE('',*,*,#301,.F.);
#393=ORIENTED_EDGE('',*,*,#302,.T.);
#394=ORIENTED_EDGE('',*,*,#301,.T.);
#395=ORIENTED_EDGE('',*,*,#278,.F.);
#396=ORIENTED_EDGE('',*,*,#303,.F.);
#397=ORIENTED_EDGE('',*,*,#304,.T.);
#398=ORIENTED_EDGE('',*,*,#303,.T.);
#399=ORIENTED_EDGE('',*,*,#277,.F.);
#400=ORIENTED_EDGE('',*,*,#294,.F.);
#401=ORIENTED_EDGE('',*,*,#304,.F.);
#402=ORIENTED_EDGE('',*,*,#293,.F.);
#403=ORIENTED_EDGE('',*,*,#296,.F.);
#404=ORIENTED_EDGE('',*,*,#298,.F.);
#405=ORIENTED_EDGE('',*,*,#300,.F.);
#406=ORIENTED_EDGE('',*,*,#302,.F.);
#407=ORIENTED_EDGE('',*,*,#248,.T.);
#408=ORIENTED_EDGE('',*,*,#251,.T.);
#409=ORIENTED_EDGE('',*,*,#254,.T.);
#410=ORIENTED_EDGE('',*,*,#257,.T.);
#411=ORIENTED_EDGE('',*,*,#260,.T.);
#412=ORIENTED_EDGE('',*,*,#263,.T.);
#413=ORIENTED_EDGE('',*,*,#292,.F.);
#414=ORIENTED_EDGE('',*,*,#281,.F.);
#415=ORIENTED_EDGE('',*,*,#284,.F.);
#416=ORIENTED_EDGE('',*,*,#286,.F.);
#417=ORIENTED_EDGE('',*,*,#288,.F.);
#418=ORIENTED_EDGE('',*,*,#290,.F.);
#419=CYLINDRICAL_SURFACE('',#477,2.);
#420=CYLINDRICAL_SURFACE('',#481,2.);
#421=CYLINDRICAL_SURFACE('',#485,2.);
#422=CYLINDRICAL_SURFACE('',#489,2.);
#423=CYLINDRICAL_SURFACE('',#493,2.);
#424=CYLINDRICAL_SURFACE('',#497,2.);
#425=CYLINDRICAL_SURFACE('',#503,12.5);
#426=ADVANCED_FACE('',(#45),#419,.F.);
#427=ADVANCED_FACE('',(#46),#24,.T.);
#428=ADVANCED_FACE('',(#47),#420,.F.);
#429=ADVANCED_FACE('',(#48),#25,.T.);
#430=ADVANCED_FACE('',(#49),#421,.F.);
#431=ADVANCED_FACE('',(#50),#26,.T.);
#432=ADVANCED_FACE('',(#51),#422,.F.);
#433=ADVANCED_FACE('',(#52),#27,.T.);
#434=ADVANCED_FACE('',(#53),#423,.F.);
#435=ADVANCED_FACE('',(#54),#28,.T.);
#436=ADVANCED_FACE('',(#55),#424,.F.);
#437=ADVANCED_FACE('',(#56),#29,.T.);
#438=ADVANCED_FACE('',(#57,#15),#30,.F.);
#439=ADVANCED_FACE('',(#58),#425,.F.);
#440=ADVANCED_FACE('',(#59,#16),#31,.T.);
#441=ADVANCED_FACE('',(#60),#32,.T.);
#442=ADVANCED_FACE('',(#61),#33,.T.);
#443=ADVANCED_FACE('',(#62),#34,.T.);
#444=ADVANCED_FACE('',(#63),#35,.T.);
#445=ADVANCED_FACE('',(#64),#36,.T.);
#446=ADVANCED_FACE('',(#65),#37,.T.);
#447=ADVANCED_FACE('',(#66),#38,.T.);
#448=ADVANCED_FACE('',(#67),#39,.T.);
#449=ADVANCED_FACE('',(#68),#40,.T.);
#450=ADVANCED_FACE('',(#69),#41,.T.);
#451=ADVANCED_FACE('',(#70),#42,.T.);
#452=ADVANCED_FACE('',(#71),#43,.T.);
#453=ADVANCED_FACE('',(#72,#17,#18,#19,#20,#21,#22,#23),#44,.F.);
#454=CLOSED_SHELL('',(#426,#427,#428,#429,#430,#431,#432,#433,#434,#435,
#436,#437,#438,#439,#440,#441,#442,#443,#444,#445,#446,#447,#448,#449,#450,
#451,#452,#453));
#455=DERIVED_UNIT_ELEMENT(#458,1.);
#456=DERIVED_UNIT_ELEMENT(#777,-3.);
#457=DIMENSIONAL_EXPONENTS(0.,1.,0.,0.,0.,0.,0.);
#458=(
CONVERSION_BASED_UNIT('gram',#460)
MASS_UNIT()
NAMED_UNIT(#457)
);
#459=(
MASS_UNIT()
NAMED_UNIT(*)
SI_UNIT(.KILO.,.GRAM.)
);
#460=MASS_MEASURE_WITH_UNIT(MASS_MEASURE(0.001),#459);
#461=DERIVED_UNIT((#455,#456));
#462=MEASURE_REPRESENTATION_ITEM('density measure',
POSITIVE_RATIO_MEASURE(1.),#461);
#463=PROPERTY_DEFINITION_REPRESENTATION(#468,#465);
#464=PROPERTY_DEFINITION_REPRESENTATION(#469,#466);
#465=REPRESENTATION('material name',(#467),#774);
#466=REPRESENTATION('density',(#462),#774);
#467=DESCRIPTIVE_REPRESENTATION_ITEM('\X2\04220438043F043E0432044B0435\X0\',
'\X2\04220438043F043E0432044B0435\X0\');
#468=PROPERTY_DEFINITION('material property','material name',#784);
#469=PROPERTY_DEFINITION('material property','density of part',#784);
#470=DATE_TIME_ROLE('creation_date');
#471=APPLIED_DATE_AND_TIME_ASSIGNMENT(#472,#470,(#784));
#472=DATE_AND_TIME(#473,#474);
#473=CALENDAR_DATE(2025,14,8);
#474=LOCAL_TIME(0,0,0.,#475);
#475=COORDINATED_UNIVERSAL_TIME_OFFSET(0,0,.BEHIND.);
#476=AXIS2_PLACEMENT_3D('',#648,#519,#520);
#477=AXIS2_PLACEMENT_3D('',#649,#521,#522);
#478=AXIS2_PLACEMENT_3D('',#651,#523,#524);
#479=AXIS2_PLACEMENT_3D('',#654,#526,#527);
#480=AXIS2_PLACEMENT_3D('',#655,#528,#529);
#481=AXIS2_PLACEMENT_3D('',#656,#530,#531);
#482=AXIS2_PLACEMENT_3D('',#658,#532,#533);
#483=AXIS2_PLACEMENT_3D('',#661,#535,#536);
#484=AXIS2_PLACEMENT_3D('',#662,#537,#538);
#485=AXIS2_PLACEMENT_3D('',#663,#539,#540);
#486=AXIS2_PLACEMENT_3D('',#665,#541,#542);
#487=AXIS2_PLACEMENT_3D('',#668,#544,#545);
#488=AXIS2_PLACEMENT_3D('',#669,#546,#547);
#489=AXIS2_PLACEMENT_3D('',#670,#548,#549);
#490=AXIS2_PLACEMENT_3D('',#672,#550,#551);
#491=AXIS2_PLACEMENT_3D('',#675,#553,#554);
#492=AXIS2_PLACEMENT_3D('',#676,#555,#556);
#493=AXIS2_PLACEMENT_3D('',#677,#557,#558);
#494=AXIS2_PLACEMENT_3D('',#679,#559,#560);
#495=AXIS2_PLACEMENT_3D('',#682,#562,#563);
#496=AXIS2_PLACEMENT_3D('',#683,#564,#565);
#497=AXIS2_PLACEMENT_3D('',#684,#566,#567);
#498=AXIS2_PLACEMENT_3D('',#686,#568,#569);
#499=AXIS2_PLACEMENT_3D('',#689,#571,#572);
#500=AXIS2_PLACEMENT_3D('',#690,#573,#574);
#501=AXIS2_PLACEMENT_3D('',#691,#575,#576);
#502=AXIS2_PLACEMENT_3D('',#705,#583,#584);
#503=AXIS2_PLACEMENT_3D('',#706,#585,#586);
#504=AXIS2_PLACEMENT_3D('',#708,#587,#588);
#505=AXIS2_PLACEMENT_3D('',#710,#590,#591);
#506=AXIS2_PLACEMENT_3D('',#723,#598,#599);
#507=AXIS2_PLACEMENT_3D('',#729,#603,#604);
#508=AXIS2_PLACEMENT_3D('',#733,#607,#608);
#509=AXIS2_PLACEMENT_3D('',#737,#611,#612);
#510=AXIS2_PLACEMENT_3D('',#741,#615,#616);
#511=AXIS2_PLACEMENT_3D('',#745,#619,#620);
#512=AXIS2_PLACEMENT_3D('',#747,#622,#623);
#513=AXIS2_PLACEMENT_3D('',#753,#627,#628);
#514=AXIS2_PLACEMENT_3D('',#757,#631,#632);
#515=AXIS2_PLACEMENT_3D('',#761,#635,#636);
#516=AXIS2_PLACEMENT_3D('',#765,#639,#640);
#517=AXIS2_PLACEMENT_3D('',#769,#643,#644);
#518=AXIS2_PLACEMENT_3D('',#771,#646,#647);
#519=DIRECTION('axis',(0.,0.,1.));
#520=DIRECTION('refdir',(1.,0.,0.));
#521=DIRECTION('center_axis',(0.,1.,0.));
#522=DIRECTION('ref_axis',(1.,0.,0.));
#523=DIRECTION('center_axis',(0.,1.,0.));
#524=DIRECTION('ref_axis',(1.,0.,0.));
#525=DIRECTION('',(0.,1.,0.));
#526=DIRECTION('center_axis',(0.,1.,0.));
#527=DIRECTION('ref_axis',(1.,0.,0.));
#528=DIRECTION('center_axis',(0.,-1.,0.));
#529=DIRECTION('ref_axis',(0.,0.,-1.));
#530=DIRECTION('center_axis',(0.,1.,0.));
#531=DIRECTION('ref_axis',(1.,0.,0.));
#532=DIRECTION('center_axis',(0.,1.,0.));
#533=DIRECTION('ref_axis',(1.,0.,0.));
#534=DIRECTION('',(0.,1.,0.));
#535=DIRECTION('center_axis',(0.,1.,0.));
#536=DIRECTION('ref_axis',(1.,0.,0.));
#537=DIRECTION('center_axis',(0.,-1.,0.));
#538=DIRECTION('ref_axis',(0.,0.,-1.));
#539=DIRECTION('center_axis',(0.,1.,0.));
#540=DIRECTION('ref_axis',(1.,0.,0.));
#541=DIRECTION('center_axis',(0.,1.,0.));
#542=DIRECTION('ref_axis',(1.,0.,0.));
#543=DIRECTION('',(0.,1.,0.));
#544=DIRECTION('center_axis',(0.,1.,0.));
#545=DIRECTION('ref_axis',(1.,0.,0.));
#546=DIRECTION('center_axis',(0.,-1.,0.));
#547=DIRECTION('ref_axis',(0.,0.,-1.));
#548=DIRECTION('center_axis',(0.,1.,0.));
#549=DIRECTION('ref_axis',(1.,0.,0.));
#550=DIRECTION('center_axis',(0.,1.,0.));
#551=DIRECTION('ref_axis',(1.,0.,0.));
#552=DIRECTION('',(0.,1.,0.));
#553=DIRECTION('center_axis',(0.,1.,0.));
#554=DIRECTION('ref_axis',(1.,0.,0.));
#555=DIRECTION('center_axis',(0.,-1.,0.));
#556=DIRECTION('ref_axis',(0.,0.,-1.));
#557=DIRECTION('center_axis',(0.,1.,0.));
#558=DIRECTION('ref_axis',(1.,0.,0.));
#559=DIRECTION('center_axis',(0.,1.,0.));
#560=DIRECTION('ref_axis',(1.,0.,0.));
#561=DIRECTION('',(0.,1.,0.));
#562=DIRECTION('center_axis',(0.,1.,0.));
#563=DIRECTION('ref_axis',(1.,0.,0.));
#564=DIRECTION('center_axis',(0.,-1.,0.));
#565=DIRECTION('ref_axis',(0.,0.,-1.));
#566=DIRECTION('center_axis',(0.,1.,0.));
#567=DIRECTION('ref_axis',(1.,0.,0.));
#568=DIRECTION('center_axis',(0.,1.,0.));
#569=DIRECTION('ref_axis',(1.,0.,0.));
#570=DIRECTION('',(0.,1.,0.));
#571=DIRECTION('center_axis',(0.,1.,0.));
#572=DIRECTION('ref_axis',(1.,0.,0.));
#573=DIRECTION('center_axis',(0.,-1.,0.));
#574=DIRECTION('ref_axis',(0.,0.,-1.));
#575=DIRECTION('center_axis',(0.,1.,0.));
#576=DIRECTION('ref_axis',(0.,0.,1.));
#577=DIRECTION('',(0.,0.,1.));
#578=DIRECTION('',(-0.866025403784439,0.,0.5));
#579=DIRECTION('',(-0.866025403784438,0.,-0.5));
#580=DIRECTION('',(1.67214146642049E-16,0.,-1.));
#581=DIRECTION('',(0.866025403784439,0.,-0.5));
#582=DIRECTION('',(0.866025403784439,0.,0.5));
#583=DIRECTION('center_axis',(0.,-1.,0.));
#584=DIRECTION('ref_axis',(-1.,0.,0.));
#585=DIRECTION('center_axis',(0.,1.,0.));
#586=DIRECTION('ref_axis',(-1.,0.,0.));
#587=DIRECTION('center_axis',(0.,-1.,0.));
#588=DIRECTION('ref_axis',(-1.,0.,0.));
#589=DIRECTION('',(0.,-1.,0.));
#590=DIRECTION('center_axis',(0.,1.,0.));
#591=DIRECTION('ref_axis',(0.,0.,1.));
#592=DIRECTION('',(-0.866025403784438,0.,0.5));
#593=DIRECTION('',(2.48124217597879E-16,0.,1.));
#594=DIRECTION('',(0.866025403784439,0.,0.5));
#595=DIRECTION('',(0.866025403784439,0.,-0.5));
#596=DIRECTION('',(0.,0.,-1.));
#597=DIRECTION('',(-0.866025403784439,0.,-0.5));
#598=DIRECTION('center_axis',(-1.,0.,0.));
#599=DIRECTION('ref_axis',(0.,0.,1.));
#600=DIRECTION('',(0.,0.,1.));
#601=DIRECTION('',(0.,1.,0.));
#602=DIRECTION('',(0.,1.,0.));
#603=DIRECTION('center_axis',(-0.5,0.,0.866025403784439));
#604=DIRECTION('ref_axis',(0.866025403784439,0.,0.5));
#605=DIRECTION('',(0.866025403784439,0.,0.5));
#606=DIRECTION('',(0.,1.,0.));
#607=DIRECTION('center_axis',(0.5,0.,0.866025403784439));
#608=DIRECTION('ref_axis',(0.866025403784439,0.,-0.5));
#609=DIRECTION('',(0.866025403784439,0.,-0.5));
#610=DIRECTION('',(0.,1.,0.));
#611=DIRECTION('center_axis',(1.,0.,1.67214146642049E-16));
#612=DIRECTION('ref_axis',(1.67214146642049E-16,0.,-1.));
#613=DIRECTION('',(1.67214146642049E-16,0.,-1.));
#614=DIRECTION('',(0.,1.,0.));
#615=DIRECTION('center_axis',(0.5,0.,-0.866025403784439));
#616=DIRECTION('ref_axis',(-0.866025403784438,0.,-0.5));
#617=DIRECTION('',(-0.866025403784438,0.,-0.5));
#618=DIRECTION('',(0.,1.,0.));
#619=DIRECTION('center_axis',(-0.5,0.,-0.866025403784439));
#620=DIRECTION('ref_axis',(-0.866025403784439,0.,0.5));
#621=DIRECTION('',(-0.866025403784439,0.,0.5));
#622=DIRECTION('center_axis',(-1.,0.,0.));
#623=DIRECTION('ref_axis',(0.,0.,1.));
#624=DIRECTION('',(0.,0.,1.));
#625=DIRECTION('',(0.,1.,0.));
#626=DIRECTION('',(0.,1.,0.));
#627=DIRECTION('center_axis',(-0.5,0.,-0.866025403784439));
#628=DIRECTION('ref_axis',(-0.866025403784438,0.,0.5));
#629=DIRECTION('',(-0.866025403784438,0.,0.5));
#630=DIRECTION('',(0.,1.,0.));
#631=DIRECTION('center_axis',(0.5,0.,-0.866025403784439));
#632=DIRECTION('ref_axis',(-0.866025403784438,0.,-0.5));
#633=DIRECTION('',(-0.866025403784438,0.,-0.5));
#634=DIRECTION('',(0.,1.,0.));
#635=DIRECTION('center_axis',(1.,0.,0.));
#636=DIRECTION('ref_axis',(0.,0.,-1.));
#637=DIRECTION('',(0.,0.,-1.));
#638=DIRECTION('',(0.,1.,0.));
#639=DIRECTION('center_axis',(0.5,0.,0.866025403784439));
#640=DIRECTION('ref_axis',(0.866025403784438,0.,-0.5));
#641=DIRECTION('',(0.866025403784438,0.,-0.5));
#642=DIRECTION('',(0.,1.,0.));
#643=DIRECTION('center_axis',(-0.5,0.,0.866025403784438));
#644=DIRECTION('ref_axis',(0.866025403784438,0.,0.5));
#645=DIRECTION('',(0.866025403784438,0.,0.5));
#646=DIRECTION('center_axis',(0.,1.,0.));
#647=DIRECTION('ref_axis',(0.,0.,1.));
#648=CARTESIAN_POINT('',(0.,0.,0.));
#649=CARTESIAN_POINT('Origin',(-13.5,0.,-23.3826859021798));
#650=CARTESIAN_POINT('',(-15.5,0.,-23.3826859021798));
#651=CARTESIAN_POINT('Origin',(-13.5,0.,-23.3826859021798));
#652=CARTESIAN_POINT('',(-15.5,4.,-23.3826859021798));
#653=CARTESIAN_POINT('',(-15.5,0.,-23.3826859021798));
#654=CARTESIAN_POINT('Origin',(-13.5,4.,-23.3826859021798));
#655=CARTESIAN_POINT('Origin',(-13.5,4.,-23.3826859021798));
#656=CARTESIAN_POINT('Origin',(13.5,0.,23.3826859021799));
#657=CARTESIAN_POINT('',(11.5,0.,23.3826859021799));
#658=CARTESIAN_POINT('Origin',(13.5,0.,23.3826859021799));
#659=CARTESIAN_POINT('',(11.5,4.,23.3826859021799));
#660=CARTESIAN_POINT('',(11.5,0.,23.3826859021799));
#661=CARTESIAN_POINT('Origin',(13.5,4.,23.3826859021799));
#662=CARTESIAN_POINT('Origin',(13.5,4.,23.3826859021799));
#663=CARTESIAN_POINT('Origin',(-27.,0.,6.52256026967279E-15));
#664=CARTESIAN_POINT('',(-29.,0.,6.76748962950227E-15));
#665=CARTESIAN_POINT('Origin',(-27.,0.,6.52256026967279E-15));
#666=CARTESIAN_POINT('',(-29.,4.,6.76748962950227E-15));
#667=CARTESIAN_POINT('',(-29.,0.,6.76748962950227E-15));
#668=CARTESIAN_POINT('Origin',(-27.,4.,6.52256026967279E-15));
#669=CARTESIAN_POINT('Origin',(-27.,4.,6.66133814775094E-15));
#670=CARTESIAN_POINT('Origin',(-13.5,0.,23.3826859021799));
#671=CARTESIAN_POINT('',(-15.5,0.,23.3826859021799));
#672=CARTESIAN_POINT('Origin',(-13.5,0.,23.3826859021799));
#673=CARTESIAN_POINT('',(-15.5,4.,23.3826859021799));
#674=CARTESIAN_POINT('',(-15.5,0.,23.3826859021799));
#675=CARTESIAN_POINT('Origin',(-13.5,4.,23.3826859021799));
#676=CARTESIAN_POINT('Origin',(-13.5,4.,23.3826859021799));
#677=CARTESIAN_POINT('Origin',(13.5,0.,-23.3826859021799));
#678=CARTESIAN_POINT('',(11.5,0.,-23.3826859021799));
#679=CARTESIAN_POINT('Origin',(13.5,0.,-23.3826859021799));
#680=CARTESIAN_POINT('',(11.5,4.,-23.3826859021799));
#681=CARTESIAN_POINT('',(11.5,0.,-23.3826859021799));
#682=CARTESIAN_POINT('Origin',(13.5,4.,-23.3826859021799));
#683=CARTESIAN_POINT('Origin',(13.5,4.,-23.3826859021799));
#684=CARTESIAN_POINT('Origin',(27.,0.,-1.5404344466674E-14));
#685=CARTESIAN_POINT('',(25.,0.,-1.51594151068446E-14));
#686=CARTESIAN_POINT('Origin',(27.,0.,-1.5404344466674E-14));
#687=CARTESIAN_POINT('',(25.,4.,-1.51594151068446E-14));
#688=CARTESIAN_POINT('',(25.,0.,-1.51594151068446E-14));
#689=CARTESIAN_POINT('Origin',(27.,4.,-1.5404344466674E-14));
#690=CARTESIAN_POINT('Origin',(27.,4.,-1.55431223447522E-14));
#691=CARTESIAN_POINT('Origin',(-2.22044604925031E-15,7.5,-2.22044604925031E-15));
#692=CARTESIAN_POINT('',(23.,7.5,-13.2790561913614));
#693=CARTESIAN_POINT('',(23.,7.5,13.2790561913614));
#694=CARTESIAN_POINT('',(23.,7.5,-13.2790561913614));
#695=CARTESIAN_POINT('',(4.44089209850063E-15,7.5,26.5581123827228));
#696=CARTESIAN_POINT('',(23.,7.5,13.2790561913614));
#697=CARTESIAN_POINT('',(-23.,7.5,13.2790561913614));
#698=CARTESIAN_POINT('',(5.14474529224658E-15,7.5,26.5581123827228));
#699=CARTESIAN_POINT('',(-23.,7.5,-13.2790561913614));
#700=CARTESIAN_POINT('',(-23.,7.5,13.2790561913614));
#701=CARTESIAN_POINT('',(0.,7.5,-26.5581123827228));
#702=CARTESIAN_POINT('',(-23.,7.5,-13.2790561913614));
#703=CARTESIAN_POINT('',(6.07153216591882E-16,7.5,-26.5581123827228));
#704=CARTESIAN_POINT('',(12.5,7.5,-1.53080849893419E-15));
#705=CARTESIAN_POINT('Origin',(0.,7.5,0.));
#706=CARTESIAN_POINT('Origin',(0.,7.5,0.));
#707=CARTESIAN_POINT('',(12.5,9.5,0.));
#708=CARTESIAN_POINT('Origin',(0.,9.5,0.));
#709=CARTESIAN_POINT('',(12.5,7.5,-1.53080849893419E-15));
#710=CARTESIAN_POINT('Origin',(-2.22044604925031E-15,9.5,-2.22044604925031E-15));
#711=CARTESIAN_POINT('',(-1.29063426612674E-14,9.5,-35.7957166897568));
#712=CARTESIAN_POINT('',(-31.,9.5,-17.8978583448784));
#713=CARTESIAN_POINT('',(-1.33226762955019E-14,9.5,-35.7957166897568));
#714=CARTESIAN_POINT('',(-31.,9.5,17.8978583448784));
#715=CARTESIAN_POINT('',(-31.,9.5,-17.8978583448784));
#716=CARTESIAN_POINT('',(1.52655665885959E-15,9.5,35.7957166897568));
#717=CARTESIAN_POINT('',(-31.,9.5,17.8978583448784));
#718=CARTESIAN_POINT('',(31.,9.5,17.8978583448784));
#719=CARTESIAN_POINT('',(0.,9.5,35.7957166897568));
#720=CARTESIAN_POINT('',(31.,9.5,-17.8978583448784));
#721=CARTESIAN_POINT('',(31.,9.5,17.8978583448784));
#722=CARTESIAN_POINT('',(31.,9.5,-17.8978583448784));
#723=CARTESIAN_POINT('Origin',(23.,0.,-13.2790561913614));
#724=CARTESIAN_POINT('',(23.,0.,-13.2790561913614));
#725=CARTESIAN_POINT('',(23.,0.,13.2790561913614));
#726=CARTESIAN_POINT('',(23.,0.,-13.2790561913614));
#727=CARTESIAN_POINT('',(23.,0.,13.2790561913614));
#728=CARTESIAN_POINT('',(23.,0.,-13.2790561913614));
#729=CARTESIAN_POINT('Origin',(6.07153216591882E-16,0.,-26.5581123827228));
#730=CARTESIAN_POINT('',(6.07153216591882E-16,0.,-26.5581123827228));
#731=CARTESIAN_POINT('',(6.07153216591882E-16,0.,-26.5581123827228));
#732=CARTESIAN_POINT('',(6.07153216591882E-16,0.,-26.5581123827228));
#733=CARTESIAN_POINT('Origin',(-23.,0.,-13.2790561913614));
#734=CARTESIAN_POINT('',(-23.,0.,-13.2790561913614));
#735=CARTESIAN_POINT('',(-23.,0.,-13.2790561913614));
#736=CARTESIAN_POINT('',(-23.,0.,-13.2790561913614));
#737=CARTESIAN_POINT('Origin',(-23.,0.,13.2790561913614));
#738=CARTESIAN_POINT('',(-23.,0.,13.2790561913614));
#739=CARTESIAN_POINT('',(-23.,0.,13.2790561913614));
#740=CARTESIAN_POINT('',(-23.,0.,13.2790561913614));
#741=CARTESIAN_POINT('Origin',(5.14474529224658E-15,0.,26.5581123827228));
#742=CARTESIAN_POINT('',(5.14474529224658E-15,0.,26.5581123827228));
#743=CARTESIAN_POINT('',(5.14474529224658E-15,0.,26.5581123827228));
#744=CARTESIAN_POINT('',(5.14474529224658E-15,0.,26.5581123827228));
#745=CARTESIAN_POINT('Origin',(23.,0.,13.2790561913614));
#746=CARTESIAN_POINT('',(23.,0.,13.2790561913614));
#747=CARTESIAN_POINT('Origin',(-31.,0.,-17.8978583448784));
#748=CARTESIAN_POINT('',(-31.,0.,-17.8978583448784));
#749=CARTESIAN_POINT('',(-31.,0.,17.8978583448784));
#750=CARTESIAN_POINT('',(-31.,0.,-17.8978583448784));
#751=CARTESIAN_POINT('',(-31.,0.,17.8978583448784));
#752=CARTESIAN_POINT('',(-31.,0.,-17.8978583448784));
#753=CARTESIAN_POINT('Origin',(-6.66133814775094E-15,0.,-35.7957166897568));
#754=CARTESIAN_POINT('',(-6.66133814775094E-15,0.,-35.7957166897568));
#755=CARTESIAN_POINT('',(-6.66133814775094E-15,0.,-35.7957166897568));
#756=CARTESIAN_POINT('',(-6.66133814775094E-15,0.,-35.7957166897568));
#757=CARTESIAN_POINT('Origin',(31.,0.,-17.8978583448784));
#758=CARTESIAN_POINT('',(31.,0.,-17.8978583448784));
#759=CARTESIAN_POINT('',(31.,0.,-17.8978583448784));
#760=CARTESIAN_POINT('',(31.,0.,-17.8978583448784));
#761=CARTESIAN_POINT('Origin',(31.,0.,17.8978583448784));
#762=CARTESIAN_POINT('',(31.,0.,17.8978583448784));
#763=CARTESIAN_POINT('',(31.,0.,17.8978583448784));
#764=CARTESIAN_POINT('',(31.,0.,17.8978583448784));
#765=CARTESIAN_POINT('Origin',(4.44089209850063E-15,0.,35.7957166897568));
#766=CARTESIAN_POINT('',(4.44089209850063E-15,0.,35.7957166897568));
#767=CARTESIAN_POINT('',(4.44089209850063E-15,0.,35.7957166897568));
#768=CARTESIAN_POINT('',(4.44089209850063E-15,0.,35.7957166897568));
#769=CARTESIAN_POINT('Origin',(-31.,0.,17.8978583448784));
#770=CARTESIAN_POINT('',(-31.,0.,17.8978583448784));
#771=CARTESIAN_POINT('Origin',(4.44089209850063E-15,0.,-2.22044604925031E-15));
#772=UNCERTAINTY_MEASURE_WITH_UNIT(LENGTH_MEASURE(0.01),#776,
'DISTANCE_ACCURACY_VALUE',
'Maximum model space distance between geometric entities at asserted c
onnectivities');
#773=UNCERTAINTY_MEASURE_WITH_UNIT(LENGTH_MEASURE(0.01),#776,
'DISTANCE_ACCURACY_VALUE',
'Maximum model space distance between geometric entities at asserted c
onnectivities');
#774=(
GEOMETRIC_REPRESENTATION_CONTEXT(3)
GLOBAL_UNCERTAINTY_ASSIGNED_CONTEXT((#772))
GLOBAL_UNIT_ASSIGNED_CONTEXT((#776,#778,#779))
REPRESENTATION_CONTEXT('','3D')
);
#775=(
GEOMETRIC_REPRESENTATION_CONTEXT(3)
GLOBAL_UNCERTAINTY_ASSIGNED_CONTEXT((#773))
GLOBAL_UNIT_ASSIGNED_CONTEXT((#776,#778,#779))
REPRESENTATION_CONTEXT('','3D')
);
#776=(
LENGTH_UNIT()
NAMED_UNIT(*)
SI_UNIT(.MILLI.,.METRE.)
);
#777=(
LENGTH_UNIT()
NAMED_UNIT(*)
SI_UNIT(.CENTI.,.METRE.)
);
#778=(
NAMED_UNIT(*)
PLANE_ANGLE_UNIT()
SI_UNIT($,.RADIAN.)
);
#779=(
NAMED_UNIT(*)
SI_UNIT($,.STERADIAN.)
SOLID_ANGLE_UNIT()
);
#780=SHAPE_DEFINITION_REPRESENTATION(#781,#782);
#781=PRODUCT_DEFINITION_SHAPE('',$,#784);
#782=SHAPE_REPRESENTATION('',(#476),#774);
#783=PRODUCT_DEFINITION_CONTEXT('part definition',#788,'design');
#784=PRODUCT_DEFINITION('\X2\0434043504400436043004420435043B044C\X0\',
'\X2\0434043504400436043004420435043B044C\X0\',#785,#783);
#785=PRODUCT_DEFINITION_FORMATION('',$,#790);
#786=PRODUCT_RELATED_PRODUCT_CATEGORY('\X2\0434043504400436043004420435043B044C\X0\',
'\X2\0434043504400436043004420435043B044C\X0\',(#790));
#787=APPLICATION_PROTOCOL_DEFINITION('international standard',
'automotive_design',2009,#788);
#788=APPLICATION_CONTEXT(
'Core Data for Automotive Mechanical Design Process');
#789=PRODUCT_CONTEXT('part definition',#788,'mechanical');
#790=PRODUCT('\X2\0434043504400436043004420435043B044C\X0\',
'\X2\0434043504400436043004420435043B044C\X0\',$,(#789));
#791=PRESENTATION_STYLE_ASSIGNMENT((#792));
#792=SURFACE_STYLE_USAGE(.BOTH.,#795);
#793=SURFACE_STYLE_RENDERING_WITH_PROPERTIES($,#799,(#794));
#794=SURFACE_STYLE_TRANSPARENT(0.);
#795=SURFACE_SIDE_STYLE('',(#796,#793));
#796=SURFACE_STYLE_FILL_AREA(#797);
#797=FILL_AREA_STYLE('',(#798));
#798=FILL_AREA_STYLE_COLOUR('',#799);
#799=COLOUR_RGB('',0.749019607843137,0.749019607843137,0.749019607843137);
ENDSEC;
END-ISO-10303-21;
